/* XPM */
static char *result[] = {
/* columns rows colors chars-per-pixel */
"64 64 102 2 ",
"   c #795548",
".  c #E91E63",
"X  c #EB2864",
"o  c #8D6E63",
"O  c #EF5350",
"+  c #E46D77",
"@  c #E96A71",
"#  c #EB707A",
"$  c #558B2F",
"%  c #A1887F",
"&  c #8BC34A",
"*  c #DCE775",
"=  c #3949AB",
"-  c #607D8B",
";  c #D85E8F",
":  c #ED5D84",
">  c #EF5B8D",
",  c #EA6496",
"<  c #6E8697",
"1  c #698699",
"2  c #668A9D",
"3  c #7287A6",
"4  c #7D88A7",
"5  c #7F93AF",
"6  c #7697B4",
"7  c #7B95B2",
"8  c #7599B5",
"9  c #719DBA",
"0  c #6FA1BF",
"q  c #70A1BF",
"w  c #768EC5",
"e  c #788BC3",
"r  c #7986CB",
"t  c #7590C7",
"y  c #709FC2",
"u  c #6EA4C3",
"i  c #6EA8C7",
"p  c #6EACCB",
"a  c #70A2C0",
"s  c #6FB0CF",
"d  c #6EAFD0",
"f  c #6FB1D2",
"g  c #70B4D5",
"h  c #71BADB",
"j  c #73BFE1",
"k  c #74C0E3",
"l  c #838793",
"z  c #928790",
"x  c gray62",
"c  c #8393AF",
"v  c #8B92AE",
"b  c #9392AE",
"n  c #9993AF",
"m  c #898FB1",
"M  c #8091B2",
"N  c #829BB4",
"B  c #9C93B0",
"V  c #A393B1",
"C  c #AC95B3",
"Z  c #B296B5",
"A  c #B798B7",
"S  c #B898B7",
"D  c #BD9AB9",
"F  c #DC9698",
"G  c #FF8A80",
"H  c #EF8E96",
"J  c #EF9A9A",
"K  c #C499A3",
"L  c #CB99A2",
"P  c #C98FB3",
"I  c #C49BBB",
"U  c #CA9DBE",
"Y  c #D595B1",
"T  c #D99AB0",
"R  c #D09EBF",
"E  c #E397AF",
"W  c #E892AB",
"Q  c #F390AE",
"!  c #F48FB1",
"~  c #E79ABA",
"^  c #989BD5",
"/  c #BF90CE",
"(  c #A899D1",
")  c #BB9DD3",
"_  c #B39DDB",
"`  c #9D8EE5",
"'  c #AC87F8",
"]  c #B388FF",
"[  c #BE9DF7",
"{  c #D19FC0",
"}  c #CE93D8",
"|  c #D294D0",
" . c #D4A0C2",
".. c #DBA2C4",
"X. c #C2BBDD",
"o. c #E3A5C7",
"O. c #E6A6C9",
"+. c #CDBDEC",
"@. c #D1C4E9",
"#. c gray96",
"$. c #F5F0FF",
"%. c white",
/* pixels */
"x x x x x x x x x x x x x x x x x x x x x x x x x x x x x x x x x x x x x x x x x x x x x x x x x x x x x x x x x x x x x x x x ",
"% % % % % % % % % % % % % % % % % % % % % % % % % % % % % % % % % % % % % % % % % % % % % % % % % % % % % % % % % % % % % % % % ",
"% % % % % % % % % % % % % % % % % % % % % % % % % % % % % % % % % % % % % % % % % % % % % % % % % % % % % % % % % % % % % % % % ",
"x x % % #.#.#.#.#.#.#.#.#.#.#.#.#.#.#.#.#.#.#.#.#.#.#.#.#.%.x x #.#.#.#.#.#.#.#.#.#.#.#.#.#.#.#.#.#.#.#.#.#.#.#.#.#.#.#.#.% % x ",
"x % % % #.#.#.#.#.#.#.#.#.#.#.#.%.%.%.%.%.%.%.%.%.%.%.%.%.%.x x %.%.%.%.%.%.%.%.%.%.%.%.%.%.%.%.%.%.%.%.%.%.%.%.%.%.%.#.#.% % x ",
"o o % % % % % % % % % % % % % % % % % % % % % % % % % % % % % % % % % % % % % % % % % % % % % % % % % % % % % %.% % % % % % % % ",
"o o o o o o o o o o o o o o % % % % % % % % % % % % % % % % % % % % % % % % % o o o o o o o o o o o o o o o o % %.% % % % % % % ",
"% o o o o o o o o o o o o o % % % % % % % % % % % % % % % % % % % % % % % % % o o o o o o o o o o o o o o o o % %.% % % % % % % ",
"% % % % % % % % % % % % % % % % z % % % % % % % % % % % o o o o o o % % % % % % % % % % % % % % % % % % % % % % %.% % o o o o % ",
"o o o o o o o o o o o o o o o o o o o o o o o o o o o o o o o o o o % % % % % % % % % % % % % % % % % o o o o o %.o o o o o o % ",
"o o o o o o o o o o o o o o o o o o o o o o o o o o o o o o % % % % % % % o o o o o o o o o o o o o o o o o o o %.o o o o % % x ",
"x x #.#.%.%.O.O.O.O.O.O.O.O.O.O.O.O.O.O.O.O.O.O.O.O.O.%.%.%.x x %.%.#.#.O.o o o o o o o o o o o o o o o % % % % % %.% % % #.x x ",
"x x #.#.%.%.O.O.O.O.O.O.O.O.O.O.O.O.O.O.O.O.O.O.O.O.O.%.%.%.x x %.%.#.#.o.o.O.O.O.O.O.O.O.O.O.O.o.O.O.O.O.O.O.O.o.%.%.%.#.#.x x ",
"x x #.#.%.%.O.O.O.O.O.O.O.O.O.O.O.O.O.O.O.O.O.O.O.O.O.%.%.%.x x %.%.#.#.O.O.O.O.O.O.O.O.O.O.O.O.O.O.O.O.O.O.O.O.o.%.%.%.#.#.x x ",
"x x #.#.%.%.O.O.O.O.O.O.O.O.O.O.O.O.O.O.O.O.O.O.O.O.O.%.%.%.x x %.%.#.#.O.O.O.O.O.O.O.O.O.O.O.O.O.O.O.O.O.O.O.O.%.%.%.%.#.#.x x ",
"x x #.#.%.%.O.O.O.O.O.O.O.O.O.O.O.O.O.O.O.O.O.O.O.O.O.%.%.%.x x %.%.#.#.O.O.O.O.O.O.O.O.O.O.O.O.O.O.O.O.O.O.O.O.o.%.%.%.%.%.x x ",
"x x #.#.%.%.O.O.O.O.O.O.O.O.O.O.O.O.O.O.O.O.O.O.O.O.O.%.%.%.x x %.%.#.#.O.O.O.O.O.O.O.O.O.O.O.O.O.O.O.O.O.O.O.O.%.%.%.%.%.%.x x ",
"x x #.#.%.%.O.O.O.O.O.O.O.O.O.O.O.O.O.O.O.O.O.O.O.O.O.%.%.%.x x %.%.#.#.O.O.O.O.O.O.O.O.O.O.O.O.O.O.O.O.O.O.O.O.%.O.%.%.%.%.x x ",
"x x #.#.%.%.O.O.O.O.O.O.O.O.O.O.O.O.O.O.O.O.O.O.O.O.O.%.%.%.x x %.%.#.#.O.O.O.O.O.O.O.O.O.O.O.O.O.O.O.O.O.O.O.%.%.%.%.%.%.%.x x ",
"x x #.#.%.%.O.O.O.O.O.O.O.O.O.O.O.O.O.O.O.O.O.O.O.O.O.%.%.%.x x %.%.#.#.O.O.O.O.O.O.O.O.O.O.O.O.O.O.O.O.O.O.O.%.%.%.%.%.%.%.x x ",
"x x #.#.%.%.O.O.O.O.O.O.O.O.O.O.O.O.O.O.O.O.O.O.O.O.O.%.%.%.x x %.%.#.#.O.O.O.O.O.O.O.O.O.O.O.O.O.O.O.O.O.O.O.%.%.O.%.%.%.%.x x ",
"x x #.#.%.%.O.O.O.O.O.O.O.~ O.O.O.O.O.O.O.O.O.O.O.O.O.%.%.%.x x %.%.#.#.O.O.O.O.O.O.O.O.O.O.O.O.O.O.O.O.O.O.O.%.O.O.%.%.%.%.x x ",
"x x #.#.%.%.O.O.O.O.O.~ O.O.O.O.O.O.O.O.O.O.O.O.O.O.O.%.%.%.x x %.%.#.#.O.O.O.O.O.O.O.O.O.O.O.O.O.O.O.O.O.O.%.%.%.O.%.%.%.%.x x ",
"x x #.#.%.%.O.O.O.O.~ ~ O.# O.O.~ O.O.~ O.O.O.O.O.O.O.%.%.%.x x %.%.#.#.O.O.O.O.O.O.O.O.O.O.O.O.O.O.O.O.O.O.%.%.%.O.%.%.%.%.x x ",
"x x #.#.%.%.O.O.O.O.o.# O.O.O.O.O.~ o.O.O.O.O.O.O.O.O.%.%.%.x x %.%.#.#.O.O.O.O.O.O.O.O.O.O.O.O.O.O.O.O.O.O.O.%.O.O.%.%.%.%.x x ",
"x x #.#.%.%.O.O.O.O.# O.O.O O.# ~ W O.# O.O.~ O.O.O.o.%.%.%.x x %.%.#.#.O.O.O.O.O.O.O.O.O.O.O.O.O.O.O.O.O.O.O.%.O.O.%.%.%.%.x x ",
"x x #.#.%.%.O.O.O.O.O.O.O O O O.# # O.O.O.O.O.O.O.O.O.%.%.%.x x %.%.#.#.O.O.O.O.O.O.O.O.O.O.O.O.O.O.O.O.O.O.%.%.O.O.%.%.%.%.x x ",
"x x #.#.%.%.O.O.O.O.O.. . . . . . O.O.O O.# O.~ O.O.O.%.%.%.x x %.%.#.#.O.O.O.O.O.O.O.O.O.O.O.O.O.O.O.O.O.O.%.%.O.O.%.%.%.%.x x ",
"x x #.#.%.%.O.O.O.O.X . . . . . . . O O O O.# O.o.O.O.%.%.%.x x %.%.#.#.O.O.O.O.O.O.O.O.O.O.O.O.o.O.O.O.O.%.%.%.O.O.%.%.%.%.x x ",
"x x #.#.%.%.O.O.~ # . . . . . . . . O O O O # O.O.O.O.%.%.%.x x %.%.#.#.O.O.O.O.O.O.O.O.O.O.O.O.O.O.O.O.O.%.%.%.O.O.%.%.%.%.x x ",
"x x #.#.%.%.O.~ ~ . . . . . . . . . . O O O.O.O.O.O.O.%.%.%.x x %.%.#.#.#.#.#.#.#.%.%.O.O.O.O.O.O.O.O.O.o.o.%.o.o.o.%.%.%.%.x x ",
"x #.#.#.%.%.O.O., . . . . . . . . . . O O.~ O.o.O.o.O.%.#.#.x x %.%.#.#.#.#.#.#.#.#.#.o...................%.%.%.....%.%.%.%.x x ",
"x #.#.%.%.%..., o.X . . . . . . . . . @  .......{ ..{ %.#.#.x x %.%.#.#.#.%.%.#.#.#.#.{ { { { { { { { { { %.%.%.R U %.%.%.%.x x ",
"x x %.%.%.%... . .X . . . . . . . . . Y R + + { { { { %.#.#.x x %.%.%.%.%.%.%.%.%.#.#.U U U U I U U U I I U %.I I U %.%.%.%.x x ",
"x x %.%.%.%.U U : X . . . . . . . . . U U I U I U I I %.#.#.x x %.%.%.%.I I I %.%.#.#.I I I D I I D D I I D D I I D %.%.%.%.x x ",
"x x %.%.%.%.I P / > . . . . . . . . . } D I D I D I D %.#.#.x x %.%.%.%.S S S %.%.#.#.S S S A S Z S S Z S S Z Z Z Z %.%.%.%.x x ",
"x x %.%.%.%.; S Z Z . . X . . . . . G G G } } Z Z Z Z %.#.#.x x %.%.%.%.Z Z Z %.%.#.#.Z Z Z Z C Z C C C Z C C C Z C #.#.%.%.x x ",
"x x %.%.%.%.Z Z ; ; : J J J ! ! } G G G G } } } C Z C %.#.#.x x %.%.%.%.C C C %.%.#.#.C C V C C C C C V V C C V V V #.#.%.%.x x ",
"x x %.%.%.%.C J J J H H : > ! ! } } ] ] } } } } } } V %.#.#.x x %.%.%.%.V V V V V V V V B V V V B V V V V B V B V B #.#.%.%.x x ",
"x x %.%.%.%.J J J J J ! ! ! ! ! ] ] ] ] ] ] ] ] } } } %.#.#.x x %.%.%.%.V B B B B B n B B B B B B B n B B B B B n B #.#.%.%.x x ",
"x x %.%.%.%.J J Q ! Q ! ! ! ! } ] ] ] ] ] ] ] ] ] ] } %.#.#.x x %.%.%.%.b b n b b b b b b b n b b b b b b b b b b b #.#.%.%.x x ",
"x x %.%.%.%.! ! Q Q ! ! } / } } } } _ _ _ ] ] ] ] ] ] %.#.#.x x %.%.%.%.b b b b b b b b v b b v b v b v b v v v b v #.#.#.%.x x ",
"x x %.%.%.%.! | | } E / } | } } _ _ _ _ _ +.@.[ ] ] ] %.#.#.x x %.%.%.%.] ] ] v m v v v v v c v v v v v v c v v c v #.#.#.%.x x ",
"x x %.%.%.%.} } T _ ( ( _ 4 _ _ ( _ ( @.@.[ @.@.@.@.@.%.#.#.x x %.%.%.%.] ] ' ] v c c c c v c m c c c v c c c c c c #.#.#.%.x x ",
"x x %.%.%.%._ T _ _ J 4 T _ ) @.X.@.@.@.[ @.@.] @.[ @.$.#.#.x x %.%.%.%.@.' ' ] ^ @.c M c c c c c c 5 5 c c 5 c 5 c #.#.#.%.x x ",
"x x %.%.%.%._ _ @.J z J @.- @.5 X.X.v @.@.X.] ] ' @.* * * * $ x %.%.%.%.@.@.^ @.@.@.@.7 5 7 7 7 5 6 7 5 7 7 5 6 7 7 #.#.#.%.x x ",
"x x %.%.%.%._ _ J J J J - - - @.< @.@.@.@.] ] ] $ & & $ $ $ $ $ %.%.%.%.@.^ @.@.r @.^ 6 7 7 7 7 5 6 7 6 6 5 6 6 7 6 #.#.#.%.x x ",
"x x %.%.%.%.6 v 5 J J - - - - - 1 5 - 6 3 6 ] ] & & $ $ %.$ $ $ %.%.%.%.6 6 6 r r r 6 e 6 6 6 6 6 6 6 6 6 6 6 6 6 6 #.#.#.%.x x ",
"x x %.%.%.%.K 6 6 6 F 6 - - - $ $ * * & 6 1 6 $ & $ 6 %.%.%.$ $ %.%.%.%.8 8 r r r r r w 8 6 6 6 8 8 9 6 8 8 9 6 6 8 #.#.#.%.x x ",
"x x %.%.%.%.6 8 K l L 8 8 $ $ $ $ $ * * * & ` $ & $ 8 %.%.%.x x %.%.%.%.8 8 8 r r r 8 8 8 0 8 9 9 9 9 9 9 9 9 9 8 0 #.#.#.%.x x ",
"x x %.%.%.%.9 9 9 9 N 1 $ $ $ & 9 - $ $ * & * $ $ $ & & & & x x %.%.%.%.w 9 0 0 r 0 9 0 0 9 0 0 0 9 9 9 0 9 0 0 0 0 #.#.#.%.x x ",
"x x %.%.%.%.9 9 9 9 9 9 $ & & 2 2 $ $ $ $ $ $ $ * * * $ $ & & & %.%.%.%.0 0 t t w 0 0 0 0 0 0 u 0 q 0 0 0 0 0 0 0 0 #.#.%.%.x x ",
"x x %.%.%.%.0 0 0 0 0 0 $ & 0 0 2 $ $ & u $ $ * * u u %.$ $ $ & $ %.%.%.u u u u y u t t u u u u u u i u - - i i u u #.- - %.x x ",
"x x %.%.%.%.a u u a u a u u u u u $ & & 2 2 $ * $ u u %.%.%.$ & & %.%.%.i i u u u i i i i i i i i i i i - - i i i i - - - %.x x ",
"x x %.%.%.%.i i i i i i i i * * * $ &                   %.%.x $ & $ %.%.p p p i p i i p p p p p p p p p - - p s s - - - #.%.x x ",
"x x %.%.%.%.i p p p p p p $ * & $ & $                 = %.%.x $ $ $ %.%.p s s f f f f f f f f f f f f f - - f f - - - #.#.%.x x ",
"x x %.%.%.%.f p s s f f f $ & & $ & = = = = = = = = = = %.%.x x $ $ %.%.d f g g f f f g g g f g f h g g - - f - - - %.%.#.#.x x ",
"x x %.%.%.%.g f g g f f f $ & f $ & = = = = = = = = = = %.%.x x %.%.%.%.h g h h h h h h h h h h h h h h - - - - - h %.%.#.#.x x ",
"x x %.%.%.%.h h h h h h h & & h $ & = = = = = = = = = = %.%.x x %.%.%.%.h j j j j j j j k j k j k k k k - - - - - k %.%.#.#.x x ",
"x x %.%.%.%.%.%.%.%.%.%.%.%.%.%.$ $ = = = = = = = = = = %.%.x x %.%.%.%.%.%.%.%.%.%.%.%.%.%.%.%.%.%.%.%.- - %.- - - %.%.#.#.x x ",
"x x %.%.%.%.%.%.%.%.%.%.%.%.%.%.= = = = = = = = = = = = %.%.x x #.#.#.#.#.#.#.#.#.#.#.#.#.#.#.#.#.#.#.#.- - #.#.- - - #.#.#.x x ",
"x x %.%.%.%.%.%.%.%.%.%.%.%.%.%.= = = = = = = = = = = = %.%.x x #.#.#.#.#.#.#.#.#.#.#.#.#.#.#.#.#.#.#.#.- - #.#.#.- - - #.#.x x ",
"x x x x x x x x x x x x x x x x = = = = = = = = = = = = x x x x x x x x x x x x x x x x x x x x x x x x - - x x x x - - x x x x ",
"x x x x x x x x x x x x x x x x = = = = = = = = = = = = x x x x x x x x x x x x x x x x x x x x x x x x x x x x x x x x x x x x "
};
