/* XPM */
static char *_9c9794894d94e3faea64516ad4dba35s2owaGe2JHQjjV7u[] = {
/* columns rows colors chars-per-pixel */
"64 64 2 1 ",
"  c gray74",
". c #EEEEEE",
/* pixels */
"................................................................",
"................................................................",
"................................................................",
"................................................................",
"................................................................",
"................................................................",
"................................................................",
"..........................            ..........................",
".......................                  .......................",
"....................       ..........       ....................",
"...................     ................     ...................",
".................    ......................    .................",
"................    ........................    ................",
"..............    ............................    ..............",
".............    ..............................    .............",
"............   ..................................   ............",
"...........   ....................................   ...........",
"...........  ......................................  ...........",
"..........   ......................................   ..........",
".........   ...........   ..........   .............   .........",
".........  ............   ..........   ..............  .........",
"........   ............   ..........   ..............   ........",
"........  .............   ..........   ...............  ........",
".......   .............   ..........   ...............   .......",
".......  ..............   ..........   ................  .......",
".......  ..............   ..........   ................  .......",
".......  ..............   ..........   ................  .......",
"......   ..............   ..........   ................   ......",
"......  ...............   ..........   .................  ......",
"......  ...............   ..........   .................  ......",
"......  ...............   ..........   .................  ......",
"......  ...............   ..........   .................  ......",
"......  ...............   ..........   .................  ......",
"......  ...............   ..........   .................  ......",
"......  ................................................  ......",
"......  ................................................  ......",
"......   ..............................................   ......",
".......  ..............................................  .......",
".......  ..............................................  .......",
".......  ..............................................  .......",
".......   ............................................   .......",
"........  .................          .................  ........",
"........   .............                .............   ........",
".........  ...........      ........      ...........  .........",
".........   .........    ..............    .........   .........",
"..........   .......   ..................   .......   ..........",
"...........  ......   ....................  .......  ...........",
"...........   .....  .............................   ...........",
"............   ..................................   ............",
".............    ..............................    .............",
"..............     ..........................     ..............",
"................    ........................    ................",
".................    ......................   ..................",
"..................      ................      ..................",
"....................       ..........       ....................",
".......................                  ..............  ...  ..",
"..........................            .................  ..   ..",
".......................................................  .   ...",
".......................................................     ....",
".......................................................     ....",
".......................................................  .   ...",
".......................................................  ..   ..",
".......................................................  ...  ..",
"................................................................"
};
