/* XPM */
static char *_e03ba82ffe44b30ecb3a624ca49e6de1M41O7xCgJYsoTYE[] = {
/* columns rows colors chars-per-pixel */
"64 64 45 1 ",
"  c #FFD39F",
". c #D8D9BD",
"X c #BE95CF",
"o c #BDBFD9",
"O c #DE97C4",
"+ c #C99ED7",
"@ c #E49CC9",
"# c #D7A9CA",
"$ c #D5AEDF",
"% c #EEA6D0",
"& c #F9AFD8",
"* c #E4B6D4",
"= c #F8BAD7",
"- c #FCBED5",
"; c #D4A9E0",
": c #E5BDEB",
"> c #E8BCEF",
", c #D5C7DA",
"< c #D8D9DF",
"1 c #FDDBC5",
"2 c #F0C0DA",
"3 c #C4DBE4",
"4 c #D8D7E2",
"5 c #D8D7ED",
"6 c #D7DCE8",
"7 c #E2C1E1",
"8 c #E8C6E6",
"9 c #E1CCE8",
"0 c #ECCBE9",
"q c #F4C5E0",
"w c #FAC9E2",
"e c #F8CAE2",
"r c #FFCEE8",
"t c #FED3E3",
"y c #F8D4E3",
"u c #F2D0ED",
"i c #F6D5EF",
"p c #F0C6F3",
"a c #FFCFFF",
"s c #F1DBF4",
"d c #FCDEF0",
"f c #FDD9F5",
"g c #FCE4F4",
"h c #FCE4FC",
"j c white",
/* pixels */
"aaaaaaaaaaaaaaaaaaaarahaahaaa5aaaaaaaaaaafaaaaaaaaaaaafa+aaaaaaa",
"aaaaaaaaaaaapaaaaaaaaaaaraaaaaa>aaaa5aaaaaaafaagapaaafppaa+aaa a",
"aaaaaaaaaa5aa+faaaaaaaaaaraaaaaaaaaaaaafh>a+ap+aata>aaaaaaaaaa5a",
"aaaaaaaaaaaaaaaaaararapafaaaaaaaaaaaaaaaaaaaaaaawfahaaafa1a aaaa",
"a5afaaaaahraafaaaaaaaaaahafaaga aaaa+apaa aaaaaaaaa+aaaaaaaaa aa",
"aaaaaaaaaaaa5aaaaaaaaaaaaaaaaaaa+aaaa5aaaaaaarfaahaafaaaaaarOpaa",
"aaaaaa;a5aaaaaaaaafaaaaaaaaaa aaaaaaaaaaaaaaaaaa5aa+aahaaaaafaaa",
"aaaaaaaapaaaaaaaaaahaaa>aafaaaaaaaaaara>aaa+gaa5aararahaaaaaaaaa",
"aaa>aa>aaaa:aaaaaaaaaaaafaaaaa>aaafr>aaaaaaaaaaaaaaaaaaaaaaaaaaa",
"aaaraaaaa+aaaha6aaaaaapaaaaaaaa+aaaaaaaapa>ahaaaaaaq+aaaaaaaaaaa",
"aaaaaa+aaaaaaaaaa>aaaaaaaaaa+a5aa>aaaarfaaaaaaaaaaaaaaaaaaaaaaa;",
"aaaaaaaapfa>aaaaaaaaa aa6aaaaaaahaaaaaaaaaaaaa>aaafaaaaaaaaaaaaa",
"aaa+aaraafaaaaaaaaaaaaaaa afaaaaa>a5aahf faaaaraaaafaaaaaaaaaa+a",
"aaaaaaaaaraaaaaa+a;aaaa<aaaa$aaaaaaaaaaa>uaa5a;aaaaaaaaaaaaaaaaa",
"a>aaaaaraar+aaaaahaaaaaa>aaa9ahaafaaaaaauaaaaa>;arafaaaaraaaaa>a",
"aaaaaaaaaaaaaraaa5aafaaa>aaa>aa5aa>aaa>aaaaaaaaa+aaaaaaaaaaafa a",
"*a;a+aaaaaafaaaaaaaa5aaafaaaaf>waaaaaaaraaaa5aaaaaaaafaaaa&aaaaa",
"aaaa+:aahaaaaaaaa&aa+aaaaaaaa>a;aahaaaaaaaaaaafaaaafaaaaaaaaaaaa",
"aaaaa+,raaaaaaaaaaaaaaraaaaraaaaaaaaaaaaaaaaaa+faaaaaasaa5paafaa",
"aafaaataa>aaaraaafaaaaaaa;aa aaaaafaaaaaaaaaaaaaaaaa;+aaaa>aaaaa",
"+aaaafaaaaaaaaaaaaaaaaaaa5+aa>aaa&afaaaaaaaaaaaaaaaapaaaaaaaaaaa",
"aaaaaaaaaafaapaaaaaaaaaaafaaaaaaaaaaaha>aiaaaaaaraaaaaaaaaa*aaaa",
"aaaaaaaaha5aaa+aaafaaaaaaaaaaa>aaa+aaaaaaaaaaaaaaaaraaahaaaaaaaa",
"aaaaaaaaaaa5aa4aaraaaaaaraa55araaahaaaataaa75aaauaafafaaaaaaa5aa",
"a>aaf5aaaaaaaaaaa&>aaaaaaafaaaaaa+aaaaaaaaaaaaaafaaaa;aaaaaaafaa",
">aaaaaaaaafhaaaa&farapa#aa&pa+aaaaaaaaaafaaaaaaaaaapaaaaaafafafa",
"aaaaa+aaaaaaa85aaaaapaaa&aaaafaaapaaaaaaapaaaoaaaaraaa; aaaaaaaa",
"aaaaaaaahaaaaaaarraaaaaa>aaaawaaaaaa;faaaaaaaaaaaaaaaaa5aaaaaaaa",
"aaf&aaaaaaraaaaaa a a0aa+a&aaaaaaaaadaaaaf>aaaaaaaaaaaaa5aaaafaa",
"aaaaaaaaaaafa ahaa;aaaraaa+awaaaaaafaaaaaaaaaaaaaaahaaaaaaaaaaaa",
"aaaaa+aaahaaaaaa aaaaaaaaaaaaaaaaaaaaaaaafaaa5a5aaaaa;aa+aaaaaaa",
"aaaaaa&aaaaaa6aaaaaaa=aaaaaaaf+apaa;hraaaafaafa+a5aaaaaaaaaaaaaa",
"Xaaaaaaaaaaaa aaa>aaaa;aaaaaa;aaa+aarfaaaaaaaaaaaaaaaafa5a;>f+aa",
"aaaaaaaaaaaaa>aaaaaa,aaaaaa>>a aaaaaaaaaaaaaa;aaaaaaaa5aaaaaaa&a",
"aaaqaaaaaaaaaaa5aaaaaaaaaaaaaaa aaaaraaaaa5aaaaaaaaaaaaaaaaaaaaa",
"afaaaaarra>paaaaa&haaaaaaaaa>aaaaa >araaraaaaaa-aaaaaaa>aaaaaaaa",
"af+aaaaaaaaaaaar+aaaraaaaa5rraafaa&aaaaaaaaaaa+aaaaaaaaaaaaaaa5a",
"ararfaaaaaaaaaaaaaaha&aaaaaaraaa aaaaaaaaaaaa&oaaaaaaaa>aaaaaaaa",
"aXraa;aaaaaaaaaaaraaaaaaa&aaaah+haaaaaaaaafaa;aaaaaaaa aapaa;haa",
"aaaataaaaaahraaaaa&aaaaaahaaaa5aaaa&aaaaaaaaaaafaaaaaaaaaaaa5aaa",
"aaaaaaaaaaaaaaafarahaaa5ra>aaaa7aaaaaaaafaaaaaaaaaaa;aaaaaapaaaa",
"aa++aa+araaa;a>faa>aaaaaaaaaraaaaaaaaaaffaafraaaaaaaafaaaaahaara",
"aaaa;afaaaaaaaaaaaaaa+aaaaa%aaayaaaraaaaa6aaaaaa aaaaaaaaaaaaaaa",
"aaa+araafaaaaaaaaaaaaaaaaaaa+haa5aaaaa;aaaaaaaaaaaaafaaaaaaaaaaa",
"aaaaaaaaaaaaafaafaaaaaaaaaaaa;aaa aaaaaaaaaaafaaaahaaaaaaa5aaaaa",
"aw+faraaa+aafa+aafaaaafaaaaaaaaaaaaaaaaaarf&aaaaa2aaaaaaaaaaaaaa",
"5aaaaaaaaaa;aaaaaaahaaaaaaaaaa>aaa aaaaaaaaaaaaa>aaaaaaaaaafaaaa",
"aaaapaaaaaa>aaaaaaaaaaaaaaaar5fagaaa.aaa;fa;aaaaaaa;aaaa>aaaaafa",
"aaaapaafaaaaaaaa;aaaaaafaaaaaaaaafapaaaraaaaaaaaaaaaaaaaaaaaaaaa",
"aaaaafafaaaaaaaaaaa5aaaa;aaafaaaaaa;aaaa+afaaaaa+faa aaaaaaaaa>a",
"aaaaafaaaaaaaafaaaaaafaaaaaaaa;aafaaraaaaaaaaaaaaaaaaa;aaaaaaa5a",
"aaaaaaaaraaaaaaaaaaa aaaaaayaaaaXaaaaaaaaaaaaaraaa5aaaaapaaaaaar",
"aaaaaraaaaaaaaaaaaaaaaaaaaafaa;aaafaaaaaarafaaaaaaaaaaaaaaaaaaaa",
"araaafaaa;aa>aaaaaa>afaafaaaaa&afataaaaaaaaa;aaad55aaaaaaaaaaaaa",
"aaaaaaaaaaaaaaafaaaaaaaaaaa;aaa3aaa;aaaaaaaaaaaaaaaaaaaaaaaaaaaa",
"aaa5aaaaaaaaaaaaaaaaaaaaaaa+aaaaaaahiaaaaaaaa5a a6aaaaafraaaaaaa",
"aa;aaa5aaafaaaaaa5aaaaaaaaaaaahaaaafaaaaaaaaaaaaaaaaaaaaaajaaaja",
"aaaaaaaaaaaaaaaaaafa5aaaaaaaaaaahaa5aaaaaaaaaapaaaaaaaaaaajaajaa",
"aaaaaaafaafaaaaa>aaaaa+afaahaaaaaa5aaaaaaa>5aaa5aaaaaaaaaaj jaaa",
"aaaaaaaaaa>aaafaaaaaaafaahaaaaaaaa>+apaaarfaaaaaaafa5aaaafjjw>af",
"aaaaaaaaaaaaaaa*aaaaaaaaaaaaaaaaaaaaa5aaaafaaaaaaaaaaaaaaajajaaa",
"aaaafa>afaa>aaaaafaafaaaaaaaa&a+aaaaaaaaaaaaaaaaaaafaaaaaajaajaf",
"aaaaaaafaaaaaaaa+faaa aaa5aaaaaaaaar aaaoafaaaaa&aaaaaaa>ajaaaja",
"aaaaaaaaaaaaaaaaaaaa@aaaaaaaaaaraaaaapaaaaaa&aaaaaaaaaaaaaaaaaaa"
};
