/* XPM */
static char *_2106f9dad9d4880d129c0acbbacc24007tn2X2nFDkWycYF[] = {
/* columns rows colors chars-per-pixel */
"64 64 92 1 ",
"  c #263238",
". c #37474F",
"X c #404B51",
"o c #455A64",
"O c #4F5D65",
"+ c #576067",
"@ c #5B6D77",
"# c #546E7A",
"$ c #5F3A87",
"% c #623D89",
"& c #69438E",
"* c #69438F",
"= c #69448F",
"- c #6E4993",
"; c #6F4993",
": c #6F4A93",
"> c #755098",
", c #755099",
"< c #765099",
"1 c #7B569D",
"2 c #607D8B",
"3 c #687F8A",
"4 c #825CA2",
"5 c #825DA3",
"6 c #8660A5",
"7 c #8862A7",
"8 c #8D68AB",
"9 c #8E68AB",
"0 c #8E68AC",
"q c #8F69AC",
"w c #8F69AD",
"e c #946EB0",
"r c #946EB1",
"t c #946FB1",
"y c #956FB1",
"u c #9B75B6",
"i c #9C75B6",
"p c #9C76B6",
"a c #9C76B7",
"s c #A17BBB",
"d c #A27CBB",
"f c #A27CBC",
"g c #A37CBC",
"h c #738C99",
"j c #78909C",
"k c #879CA8",
"l c #A786BF",
"z c #A6ACB0",
"x c #ACB3B8",
"c c #B2B8BB",
"v c #B1BABF",
"b c #A882C0",
"n c #AA84C2",
"m c #AE87C4",
"M c #AE88C5",
"N c #AD8BC4",
"B c #B18AC7",
"V c #B58ECA",
"C c #B392C9",
"Z c #B892CD",
"A c #BA94CE",
"S c #BB94CE",
"D c #BB94CF",
"F c #BF98D2",
"G c #B7BEC2",
"H c #C19BD4",
"J c #C29BD4",
"K c #C5A3D7",
"L c #C6A0D8",
"P c #C7A1D8",
"I c #CDA6DD",
"U c #CEA7DE",
"Y c #D1AAE0",
"T c #D5B3E3",
"R c #B7C1C7",
"E c #BBC3C8",
"W c #BBC6CD",
"Q c #BFC9CE",
"! c #C3CDD3",
"~ c #CAD3D8",
"^ c #FFF9C4",
"/ c #DACEE4",
"( c #E3D6EB",
") c gray88",
"_ c #E2E2E3",
"` c #E8E9EB",
"' c #ECEEF1",
"] c #ECEFF1",
"[ c #ECEFF2",
"{ c #ECEFF3",
"} c #F1F2F4",
"| c gray98",
/* pixels */
"$$$$$$$$$$$$$$$$$$$$$$$$$$$$$$$$$$$$$$$$$$$$$$$$$$$$$$$$$$$$$$$$",
"$$$$$$$$$$$$$$$$$$$$$$$$$$$$$$$$$$$$$$$$$$$$$$$$$$$$$$$$$$$$$$$$",
"$$$$$$$$$$$$$$$$$$$$$$$$$$$$$$$$$$$^$$$$$$$$$$$$$$$$$$$$$$$$$$$$",
"$$$$$$$$$$$$$$$$$$$$$$$$$$$$$$$$$^$$$$$$$$$$$$$$$$$$$$$$$$$$$$$$",
"$$$$$$$$$$$$$$$$$$$$$$$$$$$$$$$$^^^$$$$$$$$$$$$$$$$$$$$$$$$$$$$$",
"$$$$$$$$$$$$$$$$$$$$$$$$$$$$$$$$$^$$$$$$$$$$$$$$$$$$$$$$$$$$$$$$",
"$$$$$$$$$$$$$$$$$$$$$$$$$$$$$$$$$$$^$$$$$$$$$$$$$$$$$$$$$$$$$$$$",
"$$$$$$$$$$$$$$^$$$$$$$$$$$$$$$$$$$$$$$$$$$$$$$$$$$$$$$$$$^$$$$$$",
"$$$$$$$$$$$$$$^$$$$$$$$$$$$$$$$$$$$$$$$$$$$$$$$$$$$$$$$$^^^$$$$$",
"$$$$$$$$$$$$^^^^^$$$$$$$$$$$$$$$$$$$$$$$$$$$$$$$$$$$$$$$$^$$$$$$",
"$$$$$$$$$$$$$$^$$$$$$$$$$$$$$$$$$$$$$$$$$$$$$$$$$$$$$$$$$$$$$$$$",
"$$$$$$$%$$$$$$^$$$^$$$$$$$$$$$%%$$$$$$$%$$$$$$$%$$$$$$$%$$$$$$$$",
"%%%%%%%%%%%%%%%%^%%%%%%%%%%%%%%%%%%%%%%%%%%%%%%%%%%%%%%%%%%%%%%%",
"&&&&==&=====&=&=&=&&&***&&&&==&=&===&===&&&&&===&&&&==&=&===&&&&",
";;;;--;;;;;;;;;;;;:--:;;----;;;;;;;;;---;;------;;;;;;----------",
"><<<><><><<<<<<<<<<<<<<>>>>><<<<<<<<><<<><><<<<<><<<<<<<<<<<<<<<",
"1111111111111111111111111111111111111111111111111111111111111111",
"444544^544444444444444444444444444444444555544^44444444444444444",
"66777^^77777777777777777777777777777777777577^^^7667777777777777",
"wwww^^^^^000w0wwwwwwqwww0090wwqwwww00000ww9www^wwwww0000wwwwwwww",
"tttytt^ttrrteeeertrrttt^ttttetttytttrrrtttetyttttttttttrrrrrtett",
"aaaaaa^u^iiiiaaaiiiiaaaa^aaaaaaaaaaiiiiiaaaaaaaaaaaaaauiiiiiaaaa",
"ssaslasssssgssdsssssgdsssssgasggsgddssdggdssssasassadsssssdsdgss",
"bbbbbbbbbbbnglllbbbbbldl^bbbbbbbbnglbbbbbldlbbnbnnbnllbbbbbbbgll",
"mmm^mmmmmMmMmmmmmmmmmBmmmmmMMMMMmmmmmmmmmMMMmMmMmMmMmMMBmmmmmmmm",
"VVVVVVVVVVVVVCVV]'VVVCVVVVVVVVVVVVVVVV^VVCVVVVVVVVVVVVV^VVVVVVVV",
"DDDDDDDDDDDDDDS{{]DDSSSSSDDDDDDDDDDDD^^^DDDDDDDDDDDDDDDDDDDDD^DD",
"JJJJJJJJJJJJJJJ{]]|JJJJJJJJJJJJJJJJJJJ^JJJJJJJJJJJJJJJJJJJJJ^^^J",
"JJJPPPJULLLLLL{{]||||KPPKKJJPPJPPJJPJJPPL^LLJLLLLLLLJPPJPJPPJ^JP",
"YYUUUYUUUUUUUU{{]|))|UUYUUUUYYUUYYYUYUUY^^^UYUUUUUUUUYYUYUUUYUUY",
"YYYYYYYYYYYYYT]`||())|YYYYYYYY^YYYYYYYYYY^YYYYYYYYYYYYYYYYYYYYYY",
"YYYYYYYYYYYYT__`|]]]`)YYYYYYYYYYYYYYYYYYYYYYYYYYYYYYYYYYYYYYYYYY",
"YYYY^YYYYYYYU`))|]]]])|YYYYYYYYYYYYYYYYYYYYYYYYYYYYYYYYYYYYYYYYY",
"YYYYYYYYYYYY(  ]|}|]]])YYYYYYYYYYYYYYYYYYYYYYYYYYYYYYUYYY`]YYYYY",
"UUUUUUUUIIII  ]]]|}]]]](UYYUUUYUUYUYUUUUUUUUU^UUUUUUUIII|]]|YYUU",
"PJUJJJKJPPKK ]]]]]}|}]])JPJKKJJKJPJP]{PJLKJKJPLPJPPJKKK|}]]]|JPJ",
"JJDJJJDJJJD . ]]]kk!!]])!HKDFFFFFFJ|]{JDDJFDDJJSJJDDJJ|_]]]]]|JD",
"DVVDVDDVZZZz  #]#k!jj]]]2/DDZDZZZZZ)]{]JZDDZDZDS^DDDC()`]]]]]{ D",
"BBBBB^BBBB   WGR#!jj]]]]]WBBBBNNBB))]{]]BBBBMBBBMBBo_)`)(]|}]{` ",
"nbmbmbbmll    #h#!!]]]]]222bnnnNC))(_{]]]nCnnnlMbnoo))||]]] ]{] ",
"ssggssdsu     ##jj`]{]]!h22adaaN))`)|}]]]]alddadloo..||]]]]]z   ",
" aaaaaaa   2  ##jkj]{]vj22ooaauu`))|}||]]]|laapp......O.]]]     ",
"  ttettt   #  ##!jjj] +jWWooj8eWo|]|}|]]]|}tytwo.....x...]..    ",
"   w9w9   2   #hjj!!~    222h18oo]]]#]]]]]R28..........xxR.     ",
"     7    h   #jjjjjk zz 22222oo]]]]]R]]]##  ............+.zz   ",
"     1       ##jjjjjj     2222o@o]]]###_#h#    ............     ",
"             ##jjjjjjj    #222vooo]#hvGE###       ..........    ",
"           ####jjjjjjjj   ##222ovvEo###h#vR#      ..........    ",
"      2    ####jjjjjjjj   ###22ooo@ocG#######       .......     ",
"          ####jjjj jjjjj######22ooooo#########       ...        ",
"       #  ####jjjj   jjjj#####2  oooo##########                 ",
"       #  ####jj     jjjjjj####  #oooooooo######@               ",
"       #  ####jj   jjjjjjjjj###  oooooooooooo     #             ",
"  ooo##   ####jj     jjjjjjj###   oooooooooo          ^    ^    ",
"   oo##     jj       jjjjj  jjj   oooooooooo     ooo  ^   ^     ",
"o  oo##      j       jjjjj  jjj  joooooooooo      oooo^  ^      ",
"o  oo                   jj  jj   jjoooo oooooo    oooo^o^oo     ",
"o  ##                       jjj   jooo   o       ooooo^^ooooo   ",
"o  ##                  j     j     joo   oooo      ooo^o^ooooooo",
"o  #                  jj     jjj   joo    o         oo^oo^oooooo",
"o  #                  jjj           o    ooo     oo   ^o  ^ooooo",
"o    ###  j           jjj                 ooo o  o  o ^ o o^oooo",
"                            jjjj jjjooo ooooo oooo   ooo ooooooo",
"                            jj          ooooo ooooo       oooooo"
};
