/* XPM */
static char *_2d0d3c099a84463908946abad6519e111N5ztlbxFT5kMNn[] = {
/* columns rows colors chars-per-pixel */
"64 64 48 1 ",
"  c None",
". c gray13",
"X c #3E2723",
"o c #795548",
"O c #9E3219",
"+ c #BF360C",
"@ c #A43A1B",
"# c #DD2C00",
"$ c #E53935",
"% c #A9401C",
"& c #AE461D",
"* c #AF471D",
"= c #AF471E",
"- c #B44E1F",
"; c #E65100",
": c #EF6C00",
"> c #C46224",
", c #C56324",
"< c #C76625",
"1 c #C86725",
"2 c #C96925",
"3 c #C96826",
"4 c #CB6B26",
"5 c #CF6F27",
"6 c #CF7027",
"7 c #D47728",
"8 c #EF5350",
"9 c #FF6E40",
"0 c #E57373",
"q c #FF9100",
"w c #EB932F",
"e c #FFA726",
"r c #FF8A65",
"t c #607D8B",
"y c #78909C",
"u c gray62",
"i c #BCAAA4",
"p c gray74",
"a c #EF9A9A",
"s c #FFAB91",
"d c #FFCCBC",
"f c #FFE0B2",
"g c #B0BEC5",
"h c #FFCDD2",
"j c #FFEBEE",
"k c #FFF3E0",
"l c gray98",
"z c white",
/* pixels */
"                                                                ",
"                        ++++++++++++++                          ",
"                      +++++++++++++++++++                       ",
"                     +++++++++++++++++++++                      ",
"                   ++++++++++++++++++++++++                     ",
"                  +++++++++++++++++++++++++++                   ",
"                 +++++++++++++++++++++++++++++                  ",
"                +++++++++++++++++++++++++++++++                 ",
"                +++++++++++++++++++++++++++++++                 ",
"               +++++++++++k+++kkk+++++++++++++++                ",
"              +++++++++++k++++kkkk++++++++++++++                ",
"              +++++++++++k+k++kkkk+++++++++++++++               ",
"              ++++++++++k+++k;kkkkk++++++++++++++               ",
"             ++++++++++++++k;+kkkkk++++++++++++++               ",
"             +++++++++++++kk+kkkkkk+++++++++++++++              ",
"             +++++++++++Okk;kkkkkkkk++++++++++++++              ",
"            +++++++++++kkkOkkkkkkkkkk+++++++++++++              ",
"            ++++++++++ooo;ookkkkkkkoo++++++++++++++             ",
"            +++++++++OkkOkkkkkkkkkkkkk+++++++++++++             ",
"           ++++++++++OkO;kkkkkkkkkkkkkO++++++++++++             ",
"           ++++++++++O;OXXkkkkkkkkkkkkX+++++++++++++            ",
"           +++++++++;;;XXXXXkkkkkkkkXXX+++++++++++++            ",
"           ++++++++;;XXyl.ypXkkkkkkXyl.y++++++++++++            ",
"           ++++++++;kkky..tpkkkkkkkky..tp+++++++++++            ",
"          +++++++++kXXkzgggzkkkkkkkkzgggz++++++++++++           ",
"          +++++++++kkkXzzpzXXkkkkkkXXzpzX++++++++++++           ",
"          #++++++++fkkkXXXXkkkkkkkkkkXXXk++k+++++++++           ",
"          #+++++++rsddddkkkkkkkkkkkkkkkkd;+dkkk++++++           ",
"          #+++++++rshhdddkkkkkkkkpkkkkkdd;;hkkk++++++           ",
"          #+++++++rshhhhkkkkfffffkpkkkkkh;hhkkk++++++           ",
"          ++++++yyyfkkkkkkkkkkiiipkkkkkkk;kyyk+++++++           ",
"          +++++yy+rrkkkkkkkkkkkkkkkkkkkkkyyyk%yy+++++           ",
"          ++++yy@++rkkkkkkkkkkkkkkkkkkkkkyk:*==yy++++           ",
"          ++++y++++rffkkkkkkaaaaaaakkkkkyyk:+++++y+++           ",
"          +++yy++++rrfkkkf00aa000aa00fkky;k:+++++y+++           ",
"         ++++y+++++9rrfkkkaajjjjjjjaakkkyf::+++++y+++           ",
"         +-++yy+++++9rfkkkka00000888kkkkyy:+++++y++++           ",
"         +++++g++++++rgffkkk800$$$8kkkkffgg1113gg++++           ",
"          ++++ggg,,,ggg9ffkkffffffkkkkff3wgggygg+++++           ",
"          ++++++ggyyg3399ffkkkkkkkkkkff+++++gy++++++++          ",
"          +++++++gg66+++99ffkkkkkkkkkf++++++++++++++++          ",
"          ++++++++++++++++wsssssskkff+++++++++++++++++          ",
"         +++++++++++++++++wsssffkkkff+++++++++++++++++w         ",
"         +++++++++++++++++wsfffkkkkff++++++++++++++++++         ",
"         ++++++++++++++++++sffkkkkkff++++++++++++++++++         ",
"        +++++++++++++++++++sfkkkkkkff++++++++++++++++++         ",
"        +++++++++++++++++++sfkkkkkkff++++++++++++++++++         ",
"        +++++++++++++++++++sfkkkkkkff+++++++++++++++++++        ",
"        ++++++++++++++++++7zzzzzzzzzz+++++++++++++++++++        ",
"        ++++++++++++++++++7zzzzzzzzzz+++++++++++++++++++q       ",
"        +++++++++++++++++77skkkkkkkff+++++++++++++++++++        ",
"        +++++++++++++++++ssskkkkkkkffff+++++++++++++++++        ",
"        +++++++++++++++sssfkkkkkkkkffffkuf++++++++++++++        ",
"        +++++++++++++ssukkkkkkkkkkkffffukffz++++++++++++        ",
"        +++++++++++zzkkukkkkkkkkkkkkkkkukkkzz+++++++++++        ",
"        ++++++++++kzzkkkukkkkkkkkkkkkkukkkkzz+++++++++++        ",
"        ++++++++++kzzkkkukkkkkkkkkkkkkukkkkzzf++++++++++        ",
"        +++++7f++kkzzkkkkuukkkkkkkkkuukkkkkzzk++++++++++        ",
"        ++777fskekkzzkkkkkkuukkkkkuukkkkkkkzzkk+++++++++        ",
"         ++fffskekkzzkkkkkkkkuuuuukkkkkkkkkzzkk++ffff+++        ",
"         ++fssskeffzzffffffffffufffffffffffzzkk++ffff+++        ",
"         ++fskkkkfzzzzzzzzzzzztttzzzzzzzzzzzzzk++kkff++         ",
"         q+fskkkfzzzzzzzzzzzzzutuzzzzzzzzzzzzzz++kkff++         ",
"          +fskkkfzzzzzzzzzzzzzztzzzzzzzzzzzzzzzk+kkff++         "
};
