/* XPM */
static char *b62467f26d014a30fecbef4f1825d9b7dW0MKYY5EvMunBAF[] = {
/* columns rows colors chars-per-pixel */
"64 64 81 1 ",
"  c #5F3A87",
". c #613C88",
"X c #613C89",
"o c #623C89",
"O c #623D89",
"+ c #66418C",
"@ c #66418D",
"# c #6A458F",
"$ c #6A4590",
"% c #6F4993",
"& c #6F4A93",
"* c #6F4A94",
"= c #734E97",
"- c #744E97",
"; c #744F97",
": c #78529A",
"> c #78539A",
", c #78539B",
"< c #79539B",
"1 c #7C579E",
"2 c #7D589F",
"3 c #815BA1",
"4 c #815BA2",
"5 c #815CA2",
"6 c #825CA2",
"7 c #8560A5",
"8 c #8660A5",
"9 c #8A64A8",
"0 c #8A64A9",
"q c #8A65A9",
"w c #8B65A9",
"e c #8E69AC",
"r c #8F69AC",
"t c #8F69AD",
"y c #8F6AAD",
"u c #936DB0",
"i c #936EB0",
"p c #946EB0",
"a c #9872B3",
"s c #9872B4",
"d c #9C76B7",
"f c #9D77B7",
"g c #9D77B8",
"h c #A17BBA",
"j c #A17BBB",
"k c #A27BBB",
"l c #A57FBE",
"z c #A67FBE",
"x c #A680BE",
"c c #A680BF",
"v c #AA84C1",
"b c #AA84C2",
"n c #AB84C2",
"m c #AF88C5",
"M c #AF89C5",
"N c #AF89C6",
"B c #B38CC8",
"V c #B38DC9",
"C c #B48DC9",
"Z c #B891CC",
"A c #B891CD",
"S c #B892CD",
"D c #BC95D0",
"F c #BC96D0",
"G c #BD96D0",
"H c #C19AD3",
"J c #C19AD4",
"K c #C19BD4",
"L c #C59ED7",
"P c #C59FD7",
"I c #C69FD7",
"U c #C69FD8",
"Y c #CAA3DA",
"T c #CAA3DB",
"R c #CAA4DB",
"E c #CBA4DB",
"W c #CEA7DE",
"Q c #CFA8DE",
"! c #CFA8DF",
"~ c #D1AAE0",
"^ c #FFF9C4",
/* pixels */
"                                                                ",
"                                                                ",
"                                                                ",
"                                                                ",
"                                                                ",
"                                                                ",
".......X.XXX.XXX.XX... ..XXX.XXX.XXX.XXX.XX... ..XXX.XXX.XXX.XXX",
"++++++@@+@@@@@@@+@@++++++@@@@@@@+@@@@@@@+@@++++++@@@@@@@+@@@@@@@",
"#$#$$$$$$$$$$$$$#####$#$#$#####+$$$$###$#$#$###$$$$$#$##$$$$$$$$",
"&***************&*&&&***&*&&=#==****&*&*&***&*&*****&**=********",
"==;========---====--==========;;==;;==--====---,==;===---=======",
",,,,,,<2,,,,,,,,,<<>,,,,,,::::>>,,,,,,,>,,,>,,,>,,<:::,><,,,,,,,",
"2<2222221112211122112222221122222221112222222222122122222211222<",
"5555522566654555722755255555bxxNbbbbb272525552252555522755255555",
"8777688668887777787888777bbx777777777nbb777788787777787877777788",
"wwwwwwewwewwwwwwwwwwwwwwnwwwwwwwwwwwwwwwnwwwwwwwwwwwwwwwwwwwwwwe",
"yrrrrrrryyrrryrrryyyyyxNreeeeerrrerrrrrrezveeeeeyrrreyyeeeeeeeey",
"ippiiiiippiiiippiipipxiaiaiiaiiiiiiiiiiiiiazpppippiiippipppppppp",
"aaaaaaaaaaaaaaaaaaaaxaaaaaaaaaaaaaaaaaaasaaavaaaaaaaaaaasaaaaaaa",
"fffffffffffffffffffxhffdfffgddfffffffffffhffdNfffffffffggfffffff",
"hhhghhhhhhhhhgxghfnhhhhhfhhfhhhfhhhhhhhhhhhhghvhhhghhhghhhhhhhhh",
"xxxxxxxxccxcxxxzxnxxxxxxxxxbxxxxxxxxxxxxzxxxxxxbxxxxxxxxxxxxxxxx",
"nnnnnnbbnncbbbnnnnbnbbxNnnnbbbbbnnxbxNNzNzxvxNnbbbnnnnnnxbxNxbxn",
"NNNNNNNNNNNMNNNNnNMMMMMNMMMMNNNNMNNNMMMNNNVNNNVNbNNNNNNNNCNNCNNC",
"CVVVVVVVBBBVVVVVxZCVVVVVVVBbVZBVCCVVCvBZVVVVVVVVbCCCVVVANCCCVVVV",
"ZZZZAAAAAASSSSAbZZSZSSSSSSSxSSZZZZSSSbZZSSASZZSSSbZZCAASZZSSZSSZ",
"FFFFFFFFGSSSGFFbGGGFSFFFFGGbSFGSZSGSGbASAGGSSSGSSbFFAFSFZGGGAFGF",
"IFIFIFUFGYSYGPGlGSEGGYGSPGExPGPGYGYGYbSYPGPGYGYGYbSYSYPGYSYSYPGP",
"YIIPPPPPEYYPPPvYEEERGEEYRPExEGYPPRGYYbYPPPPPPRGYPPbPPPPPPPPPPPPY",
"YYEEYYTTYYRRTTbTEEEEEERRYRExRRRRRRRRYxYYEEYYRRRRYEcETTTTTRTRYYYY",
"E!W!R~~WY~~RRWbWE!!!E!!!R!!N~!!!W~WW~xR!!!W!W!WW~~b!WWW~WWWWWWYW",
"~~~~~~~~~~~~~~b~!!!!!!!!!!!x~~!~~~~~~b~!~~!~~~~~~~x~~~~~~~~~~~~~",
"~~~Q~~~~~~~~~~n~~~~~~~~Q~~~~~~~~~~~~~~~~Q~~~~~Q~~~nQ~~~~~~~~~~~~",
"QQQQQQQWQWWWWWn~QQQ~QQQQQQQQQQQQWWW~WWW~QQQQQQQQQQn~WW~W~WE~~EQ~",
"EEEEYEYYYTYYTTnTEEEUTTYTTTEYTTTTYYYRRRYTEETTEEEETYnYYYWYYYYEIYEE",
"IIIIIIIYYULIYUcTIIIIIUIIULIULLLUPYGRUGYUIIUUIIIIUInIIIIIIIIIIIII",
"HHHHKHHKFHHHKKnKHKHHHHHKHHHHKKJKHKKKKKKHGKKKKKKKHHxKKKHHHKHHHHHH",
"ZKKZZHHZZKKZDDDnHZZHKZHZZKKZDDupuuiippKZDGKZDDFFAnZHHHZHHZHKHZZH",
"ZZZZZZZZZZZZZZCnZZZZZZZZZZZZuuuZZZZZZppZZDCDZAZZAnAZCZZZCZZZZZZZ",
"CCCVCCCCVVVCCCCnCCCCVZVCVCCpuCCCNVCCCCpeCVVCCCCCAzVVCCCCCCCCCCCC",
"nmmmmmmmmmmmmmnNnmmmmmmmmmpunNnVmmmmnmmppnVnnNNnbnVnNnVnNnMmmNNM",
"nnnnnnnnbbbbbbnmnnnnnnnnnpunnnnnnnnnnnbbubnnnnnnbnnnbnnnnnnncnnn",
"zzzzzzzzkccccczzzzzzzzzzjuzzczzzzzzzzzzzuccczzznxzzzczczccczzzzz",
"hhhkjjjhjjjjgjjjhnjkjhhhjuhhjjjjkkhhjjjhjpjjjjjnjjkjjjkjhhhkhkkh",
"gggggggggggddgggddnfgggfgufffgffffggddggguddddngggfdggfgggggfffd",
"sssppssssspdpsssssansssssasssspssssssssssssspnsssssssspssspsasss",
"uuuuupiiuuuuppuiuupunuuiuuupuupppiupuuuuuuuunuupuuuuuuppuuuuuuuu",
"eeuteeeetttetteeeeeeeneettttttyyeeeeetteettnyyteteeettetttttttee",
"8ww0wwwwwwww8wwwww8e8wnnwwwwtwwwww8wwwwwenn8ww8e88e8eww8wwwww8ww",
"6ww48668w6866ww4866w6686n686686w6w686w68n68w4w666ew6666ww6686ww6",
"4444444646446644646664466nnn666666666ncn664464664444444666464444",
"2222111121141112111164221216cnccnnnnz611112222112222111111122222",
",,::::::-,>;:,,,;>:,>,,,,,>,-,;>,,,>;>:,,,,,-,,,,,::-,>,::>;,,,,",
"----------------==---===------=-------------==------^--=-^------",
"*-%%%=%%-*%-%--$%=%%%%=**-%%-%%-%;*%%-#-%;*%=******%^=%%^%%-%--$",
"$$$$##########$$###%$$$$$###$###############$$$*$*$#^$$^#$#####$",
"$.+..$..oo...%o#X@+++X.$++.++++.ooo+.$.%X@++++.+.+++^+^.o#oOO%o#",
"X..o...oooooOOooX.XXXOoo...oo..o.ooo..oo..XXXXoo.oo.^^ooooooOOoo",
"o   OO  o.    o     X   .   o   o           X   ..  ^ ^         ",
"     o  oo          Oo          oo          o       ^  ^        ",
"                                                    ^   ^       ",
"                                                    ^    ^      ",
"                                                    ^     ^     ",
"                                                                "
};
