/* XPM */
static char *_c54ce8997f84295ab6fc0bfb4dee24eC0XSKYB5OPbLSQZY[] = {
/* columns rows colors chars-per-pixel */
"64 64 197 2 ",
"   c #7C939E",
".  c #7E94A0",
"X  c #BBB19D",
"o  c #8396A3",
"O  c #849BA6",
"+  c #8A9EA7",
"@  c #8F96AD",
"#  c #8E9AAB",
"$  c #919EAE",
"%  c #999FB4",
"&  c #A29BBB",
"*  c #8DA1AA",
"=  c #93A2AE",
"-  c #9BA7AD",
";  c #95A9AF",
":  c #9AA9AF",
">  c #8CA5B1",
",  c #91A5B1",
"<  c #94A9B2",
"1  c #9CACB3",
"2  c #9AB1BA",
"3  c #9EBABC",
"4  c #A1AEB4",
"5  c #A6A3BB",
"6  c #A4A2BC",
"7  c #A5ACBB",
"8  c #ABACBC",
"9  c #A3B3B9",
"0  c #A9B6BC",
"q  c #FFD39F",
"w  c #FFF59D",
"e  c #95BDC6",
"r  c #99BCC7",
"t  c #9EBCC8",
"y  c #A6A5C0",
"u  c #ACA5C2",
"i  c #A7ADC3",
"p  c #ABAEC2",
"a  c #B1A7C1",
"s  c #B5ACC6",
"d  c #B5AAC9",
"f  c #BBAFCD",
"g  c #A8B5C4",
"h  c #A5BEC7",
"j  c #ABBFC6",
"k  c #A8B6CA",
"l  c #ABBBC8",
"z  c #B1B1C5",
"x  c #BBBCC9",
"c  c #BEB4D3",
"v  c #DE97C4",
"b  c #C99ED7",
"n  c #E49CC9",
"m  c #C0A7D2",
"M  c #C5ABD5",
"N  c #C7AFD9",
"B  c #CBACDB",
"V  c #D1AEDE",
"C  c #DDADDE",
"Z  c #C3B6D1",
"A  c #CAB6D3",
"S  c #CCB9D5",
"D  c #CDB1DA",
"F  c #CDBEDC",
"G  c #D7BBD6",
"H  c #D1B4DD",
"J  c #DBB4DD",
"K  c #D2BEDC",
"L  c #D8BCDE",
"P  c #E1ABDF",
"I  c #F9AFD8",
"U  c #E4B6D4",
"Y  c #E1B3DF",
"T  c #D4ABE1",
"R  c #DCADE0",
"E  c #CEB7E5",
"W  c #D2B2E2",
"Q  c #DCB3E5",
"!  c #D5BAE4",
"~  c #DCBCE4",
"^  c #E2ACE1",
"/  c #E2B2E2",
"(  c #EAB2E7",
")  c #E3BCE4",
"_  c #E9BDE6",
"`  c #E5BDEB",
"'  c #E8BCEF",
"]  c #F1BCE4",
"[  c #F1BCEF",
"{  c #ABC0C6",
"}  c #ADC2CB",
"|  c #B5C3C3",
" . c #BBC4C1",
".. c #B4C4CA",
"X. c #BAC6CB",
"o. c #BDC5E4",
"O. c #B7D8EB",
"+. c #BADBED",
"@. c #B6E7EE",
"#. c #BAE6EF",
"$. c #BBE5F2",
"%. c #B5E9F1",
"&. c #BBE8F3",
"*. c #C3C4C4",
"=. c #C3C6CA",
"-. c #CDC1CD",
";. c #C5CACA",
":. c #CACCCB",
">. c #D8DFC8",
",. c #CDCED5",
"<. c #CFC0DB",
"1. c #CBCDDB",
"2. c #D1C0DB",
"3. c #DDC4DD",
"4. c #D6CFDB",
"5. c #CED7D7",
"6. c #C5D5D8",
"7. c #CCD4D8",
"8. c #D6DAD5",
"9. c #DBDCD4",
"0. c #D1D5D8",
"q. c #D6DBDB",
"w. c #DBDDDB",
"e. c #FDDBC5",
"r. c #CDC6E6",
"t. c #C4CAE9",
"y. c #D9CCE5",
"u. c #D5C3EC",
"i. c #DEC3EC",
"p. c #D6CBE9",
"a. c #D9CCE8",
"s. c #C7D7E7",
"d. c #DCD4E4",
"f. c #D8D7ED",
"g. c #D7DCE8",
"h. c #D8DDED",
"j. c #CDD4F0",
"k. c #D8DDF8",
"l. c #E3CDE7",
"z. c #E1C4EC",
"x. c #E9C6EB",
"c. c #E2CCE8",
"v. c #F9CAE2",
"b. c #F1C5EA",
"n. c #FFCEE8",
"m. c #E2D1E6",
"M. c #EBD1E6",
"N. c #E3D2ED",
"B. c #EBD3ED",
"V. c #FED3E3",
"C. c #F1D4EE",
"Z. c #FCD7EC",
"A. c #F0C6F3",
"S. c #FFCFFF",
"D. c #FDD9F5",
"F. c #C5E2EE",
"G. c #CBE5EE",
"H. c #D7E6ED",
"J. c #DEECEC",
"K. c #DCF3ED",
"L. c #C4E4F4",
"P. c #CBEEF2",
"I. c #D7E3F3",
"U. c #DCE7F5",
"Y. c #D4ECF3",
"T. c #DCEEF1",
"R. c #D4F0F1",
"E. c #DFF0F1",
"W. c #DBF4F9",
"Q. c #E8EBED",
"!. c #E4F3ED",
"~. c #EEF6EC",
"^. c #FEFCE7",
"/. c #F2F5EC",
"(. c #FDF5EB",
"). c #F6F9EA",
"_. c #FBFBE8",
"`. c #E3ECF2",
"'. c #ECEDF2",
"]. c #EFE0F8",
"[. c #E6EAF8",
"{. c #ECEEFC",
"}. c #FFE6F3",
"|. c #FDE5FD",
" X c #F9EEFB",
".X c #E0F0F1",
"XX c #EFF6F7",
"oX c #EDF9F6",
"OX c #E4F4F9",
"+X c #EBF6F9",
"@X c #EEF8F9",
"#X c #F6FAF6",
"$X c #FCFCF4",
"%X c #F5F6FB",
"&X c #FEF4FD",
"*X c #F5FBFC",
"=X c #FDFEFD",
/* pixels */
"S.S.S.S.S.S.S.S.S.S.S.S.S.S.S.S.S.S.S.S.n.S.|.S.S.|.S.S.S.f.S.S.S.S.S.S.S.S.S.S.S.D.S.S.S.S.S.S.S.S.S.S.S.S.D.S.b S.S.S.S.S.S.S.",
"S.S.S.S.S.S.S.S.S.S.S.S.A.S.S.w S.S.S.S.S.S.S.S.n.S.S.S.S.S.S.` S.S.S.S.f.S.S.S.S.S.S.S.D.S.S.}.S.A.S.S.S.D.A.A.S.S.b S.S.S.q S.",
"S.S.S.S.S.S.S.S.S.S.f.S.S.b D.w S.S.S.S.S.S.S.S.S.n.S.S.S.S.S.S.S.S.S.S.S.S.S.D.|.' S.b S.A.b S.S.V.S.' S.S.S.S.S.S.S.S.S.S.f.S.",
"S.S.S.S.S.S.S.S.S.S.S.S.S.w w w w w n.S.n.S.A.S.w S.S.S.S.S.S.S.S.S.S.S.S.S.S.S.S.S.w S.S.S.S.S.v.D.S.|.S.S.S.D.S.e.S.q S.S.S.S.",
"S.f.S.D.S.S.S.S.S.|.n.S.S.D.S.w S.S.S.S.S.S.S.S.|.S.D.S.S.}.S.q S.S.S.S.b S.A.S.S.q S.S.S.S.S.S.S.S.S.b S.S.S.S.S.S.S.S.S.q S.S.",
"S.S.S.S.S.S.S.S.S.S.S.S.f.S.S.w S.S.S.S.S.S.w S.S.S.S.S.S.S.S.S.b S.S.S.S.f.S.S.S.S.S.S.S.n.D.S.S.|.S.S.D.S.w S.S.S.S.n.v A.S.S.",
"S.S.S.k.S.S.T S.f.S.S.S.S.S.S.S.S.S.D.S.w S.S.w S.S.S.S.S.q S.S.S.S.S.S.S.S.S.S.S.S.S.S.S.S.S.S.w S.w w S.S.|.S.S.S.S.S.D.S.S.S.",
"S.L.S.k.S.S.S.k.A.S.S.w S.k.k.k.S.S.k.|.S.S.k.' S.S.h.S.S.S.S.S.S.S.S.k.S.n.S.' S.k.S.b I.k.S.f.w w w S.v.k.|.S.w S.S.S.S.S.S.k.",
"S.S.L.' k.S.' k.k.S.L.w S.k.S.S.S.k.S.S.S.k.S.S.D.S.S.k.S.k.' S.S.@.D.n.' S.S.k.S.S.L.S.S.S.w w w w S.S.S.k.k.k.S.@.k.k.L.S.S.k.",
"S.S.S.n.S.S.S.S.S.o.k.w S.|.S.g.k.S.S.w S.S.A.k.S.S.S.S.k.k.S.o.S.S.S.k.S.S.S.S.A.S.j.k.|.S.S.w w w w #.b k.k.S.k.S.S.S.S.k.S.S.",
"S.S.S.S.S.L.o.S.k.w w w w w k.S.L.' S.S.S.S.S.k.S.S.S.S.b k.f.S.k.' k.S.k.S.n.D.S.S.S.k.S.S.w S.w S.S.S.S.S.S.k.k.I.S.k.S.k.L.T ",
"S.S.k.S.S.S.S.S.A.I.S.w k.k.k.L.S.k.S.k.k.>.S.S.g.S.S.S.k.S.k.S.|.k.S.k.S.k.k.S.S.k.k.S.S.S.' k.w S.D.&.k.%.S.%XL.&X{.&X|.=X&XS.",
"S.S.k.b S.k.n.S.k.D.L.w k.S.k.S.S.S.S.k.S.S.S.S.S.q k.D.k.k.S.k.S.j.S.f.S.S.I.D.X D.S.$ k.S.n.k.k.k.S.I.L.L.k.|.L.$X*X&X=Xk.b |.",
"S.S.S.k.k.L.S.S.S.n.S.k.S.k.S.S.O.L.V k.k.S.k.F.k.k.k.S.t.S.S.S.S.S.S.k.k.f f k.' L.k.L.F.L.V S.S.S.S.S.$./.}.{.&X&X%X}.+X&X&X%X",
"S.' S.L.k.S.S.n.k.k.F.o.k.%.k.S.L.I.S.S.k.k.k.S.' w w S.a.S.|.S.S.D.k.S.k.t S.S.C.L.% k.S.U.I.+.S.h.S.K.'.$X&X&X$X$X=X#X&X$X&X|.",
"S.k.S.S.S.L.k.S.S.S.S.L.k.'.S.L.S.f.k.L.D.S.S.S.j.k.w k.' S.k.@.k.k.' S.k.k.' k.P.S.U.l %X}.P.`.b L.S.}.~.*X$X$X#X$XS.L.^.(.$X*X",
"s.k.t.L.o.$.k.L.k.S.S.I.|.|.|.OX|.&Xk.$.f.k.k.S.w w w w w I.j.v.k.S.k.S.k.k.S.g ..L.$X).~././.}.].k./._.'.+X^.$X$X=XXX$X&XI.'.{.",
"k.$.k.S.o.` L.L.U.&X%X|.L.I.S.L.&.I k.S.b S.S.k.S.S.w S.k.$.S.+.S.S.x S.k.f &.]..._.j | ^.~.*X~.j %X}.D.~.#X=X=X*X$X%XJ.^.&X$XL.",
"@.$.&.$.k.o.%.n.S.k.%XOXk.{.k.OXS.OX&X|.|.k.h.S.L.S.w h.S.k.k.k.S.k.I.k.k.f > , ..`....XC.*X} h (._.).L.$X=X)._.^.$X=X=X#X!.&X=X",
"k.k.I.k.k.S.V.k.k. XS.&.%XOXS.k.L.@X{.OXS.S.&.S.S.t.S.k.q k.k.k.k.k.L.k.k.k.).#X~.~.X.*X..< X. .T.$X_.Y.*X*X$X*X%X=X$X#X$X^.$X*X",
"o.k.L.k.k.L.%.k.|.k.+X*XW.OX{.@XL.&XOX&.k.|.k.k.S.s.+.S.S.' $.k.k.#.k.k k S.< )...^.`._.@X..).+X$X$X=X/.Q._./._.#XoX$X/.*XU.*X=X",
"L.k.%.L.].[.%.L.].@XY. X%XL.|.W.{.L.&XW.{.*X&.k.k.D.S.k.k.k.k.S.S.k.S.S.$.(./.=X~.&X~.Y.$X=X| +XK.~.^.^.R.$X=X$X$X+X$X$Xk.).$X=X",
"S.L.k.$.%.T.R.P.P.OX+X*X].*XO.@X&X%X&.OX&X|.S.L.L.k.k.k.k.S.$.k.S.f & k k./.| /.}.{ _._.`._./._.=X$X$X_.^.~.).P.$X$X=X$X#XP.=X@X",
"%.$.&.k.@.L.P.R.Y.P.OXL.+X@Xd.W.&X{.W.&.*Xk.!.k.h.k.L.#.L.@.h.S.k.> t $.S.f *X~.$XE.$X).OX!.[.).~.T.$X).^.)._.~.*X/./.$X#X/.=XL.",
"L.%.T.Y.L.P.k.P.OXOXW.L.@X*X*XW.W.s.OXOXW.+X'..X}.$.OXS.W.k.k S.k o.S.}.> {.$XO #X/.).Y.~.$X~.#X#XK.oX~.E.~._.).).E._./.P.E.P.L.",
"@.S.U.@.&.P.P.S.@X*XW.W.OXOX@X=X*X*X*X@X+X~.~.J.!.oXZ.%XS.@X{.$.e S.f ..&.L.| ;  .X...| .X*X).^.$X$X%X.X)._.E._.9.^.~.[.J.P.D.&.",
"k.&.k.P.OX*XOX&.R.W.W.W.@XOX=X=X{.+X=X=X~.E.~.E./.L.=XXX%.+X&Xk.} s } e U.$XL.^.| ..#X_./.).E.$X_.`.K.T.;.9.).~.R.~.!.R./..X&.L.",
"%.k.Y.OX*X=X*X@X%.R.*X=X*X*X=X*X*X=X~./.=X@X`..X).).=Xj l '.r O }.O ).#Xj T.} l $X< P..._.$X#X*X*XE.8.oXE.E./.w.*XT. .@X> c k.c.",
"Y.*XOX*X*X*X*X*XW.*X*X@X*X=X=X=X=X=X=X=X#X#X$X).^.~.~.{ { *X, O ..{ } ~.j =X> oX$.T.| $X#X*XT.$X).!.6.~.~.OXw.8.K.| w.d q.L.E k ",
"OX@X=X=X*X@X*X*X/.OX*X=XK.=X%X=X#X*X*XE.$X=X@X*X^.~.../.W.oX/...1 X.; } < h h U.U.+Xj U.~.J.oXR.S.R.~./.E.Y.w.q.~.OXc ..~.~ p.! ",
"&X+X*X=X=X=X=X=X=X=X=X=X*X=X)./.=X$X=X$X=X=X=X@XM.M.X.X.X...&X..> X.~.X.X...{ l | #X~.{.+X~.OXJ.8.&.E.8.8.5.$X)...;.p.~.T.Y.d.Y.",
"W.*X*X=X=X*XoX=X=X=X=X=X*X=X=X=X#X#X=X=Xc.=X$XX.| X.o oX   .X.X.< X.< < ..L.J...k.#XX.Y.~.).'.G.T.R.+X@X/.W.w.+X7.#XN.E.7.! ! ~.",
"=X+XOX*X=X=X*X*X+X=X=X=X=X=X=X=X=X=X=X/.=X=XC.X.$ | p + ..  + ..X.1 X.X.X.+X!.X./.*X[.X.~.=XT.P.5./.$XE.E.E.8.@Xm.f f r.E.~.d.#X",
"*X=X*X=X*X=X=X=X*X=X=X=X=X=X=X$X=X=X=XC..X=X=X*X..~.*X$XQ.r 3 X.X.. } ..> E...).E._.U.~.#X!.~.)._.J.Y.@X#X)._.5.y.f j 2 w.Z +X~ ",
"+X*X*X=X=X=X=X=X=X=X=X=X=X=X=XB.=X=X=X_ =X=X$Xz ..1 | = 1 s < j ..< ~.*X* X.| *X*X~.~.*X+X`.5.!.7.~.~.E.~.!.9.: 8.d.T.T.2.d.F ~ ",
"*XP.*X@X*X@X*X=X=XB.=XB.=X=XN.=X=X*X=X*X$X=XX.. ~.< _ { .X*X> X.< . O 5.< %X. O ..X.*XR.7.9 U._.8.T.:.~.w.*.w.~.....f f M 1 <.D ",
"*X*X*X=X=X=X$X$X=X=X=XB.=XN.$X$Xm.=X~ B.=XX.C.N.O 1 { *XM.< ..1 ; ..X.:.9 > 9 =XO #X$X} `.{ 8.E.7.{ ; T.q.q.9.~.! S S m 0 H D p.",
"W.#XB.M.C.=XC._.N.=XB.=X=X=X=X*X=XC.l.C.< X.#XM._ a X.u % =X5 o * l < > 9 w.{ *X*X{ * ;.{ 6.~.P.O T.1 6.;.E.;.9 @XM V B W f W c ",
"B.r.B.:._ _ N.N.=Xm.B.=X*X=X=X=X~ d.x.$X#Xz a { < @XX.= 1 X.1 3.; . . . { { 9   q.< ..7.E.5.K.T.k.0.E.* w.@X5.5.f 2.H D B o D 1 ",
"^ 3.J ( ) l.*XB.B.=X*XD B.a.a.*X=X~ C._ ..X.< O | c.o y | $ + 1 i   # 9 p.{ { @X* O E.E.> `.E.E.5.5.Y.P.E.{ :.;.! :.{ M ! f H H ",
"b.^ w.E C.H H B.M.d./.5.E.N.=X$X*X@XN.*XB.z { c.p o X.< T.o $     o q.2.{ E...< 0 o * * O 0.{ 9 E.E.E.;..X> 5.*.2.2.y.H p.> H D ",
"~ }.P P 3.*X&X) ) 2.E.E.K./.*XoXT.OXE.=X.Xc.. ..j 8 < = 9 o + + <...* N.h 9 * {   *...E.{ { { .X{ 5.E.5.!.5.9  .1 D N c M c u f ",
"!.L ) 2.R y.C / ) ~ ! E.a.7.p.a.E.K.%Xm.5.+Xc.E.u Q ..  a.$ 4 $ d.T.OX1 0 E.9 9 ..;.9 { 9 : 9 E.5.5.{ 9 E.* E.s f B V =.p.j t.S ",
"3.) ~ y.E.K ) C C Y ~ W 8.E.p.a.E.XX@Xq.B G ! = @X< < E.o j + XX, $ i N.0 O O O { O * 1 2 } { { 9 5.9 { 1 9 y.- u D B H y W V f ",
"_ c.2.a.J P / 3./ ~ l.! ~ y.E.E.`.W N.W N.E.Q 9 d.} l ..a..X.Xy 9 * 4 { < * * o 9   E.    { j J.o K.{ > 9 E.* { d D 2.a.H B V B ",
"J l.) M.C J Y Y P a.^ E.E.E ! R a.a.H 7.5..X=X! ~ p.} @X..*X.Xp.6 * > ;.p.# ; K.9  .;.{ 5.K.5.j { * O { 7.E.Y.A <.f M H B K L F ",
"C 5.C ^ ^ y.P ! C ^ 3.C 2.T 7.3.c.E.! 2.V *Xy.q.~ *.N.:..Xq.*.`.5.T.y o .X# < *   O { < j E.* 5.;.9 * < T.; ;.E.y.*.V 1 o m c =.",
"P P c.H ^ ) L P ^ 7.B ! E.W d.2.D 2.a.<.p.c.K.S K.5.*X*X<.T.a.p.E.W k.@   H O o   { k.O h { < 9 ; { 9 9 < E.{ 9 c j V A 1 c c B ",
"/ C S J P ~ J P l.~ J l.J.E.;.! ) ;.p.E.W 5.N.N.H N.p.~ D p.a.p.p.@ F 1 6 i O 9 * .X. O 5.`.* { 9 h 5.O 5.E.E.E.5.S N d.p.W ' T ",
"[ P c.P P C P ^ Q ;.~ V R p.~ <.0.c.D W a..X5..Xa.`.0.S..XK ! 7.<.H *.E.U.+ H = * 9 { { E.E.E.{ H.{ { { { * h `.5.c S D f a.r.S.",
"P ) / C H C L c.!./ a.K l.K T 5.].2.y.a.E.K.`.a.`.7.S.-.' 2.5.! S T.{ y..X! & S l { { .X9 { o { 5.o * + { 5.{ E.5.a.5.9 E.f j.u.",
"[ S.p..X3.~ J C C ! J K.4.c.c.a.! E.3..Xy.~ a.T.a.`.` F 4.5.E.!.=.7.`.a.y.K V S 2.0.7 T.{ E.5.E.{ 9 X.7.U.5.E.5.5.< f L.S.S.S.E ",
"S.S.! W p.W ! 5.R ^ D x.W i.! ;.7..Xa.2.2.! ! W ].z.J A S.C.U.;.5.y..Xp.i ! H `.{ 1 T.8 T.9 7.`.= 3.1 . X.T.} ].`.T.S.2 I.k.' S.",
"S.] W S.' x.T.V ^ t.u.S.T W [.`.J c..X7.! y.D `.U.I.V ' z.! D a..X2.! 2.6 2.p.9 :.5.f S.@ S.L.-.T.g O 3.S.f l 3.-.r k.S.%.&.E S.",
"S.S.i.( ! ( ' S.$.k.! ' ( [ ( p.K 5.`.a.5.U.7.k.S.' W V y.a.~ `.p.W S ,.p.y.E.<.2.:.f k f f f 1.k.f k.3.f k k.S.k.-.S.S.S.k.S.k.",
"S.S.S.f.( ' S.' S.^ u.S.' S.S.S.Q [.i.`.' 4.S.1.' S.S.b ' k.T.4.3.p.0.5.a.V T.`.].`.3.8 S.$ S.X f g.S.k.f 3.8 3.n.3.S.k.k.S.k.k.",
"S.S.T k.S.S.f.S.Q [ _ S.S.S.S.S.S.s.S.S.Q S.R ' S.' ' ' ' ' 0.i.a.'.T `.;.y.z..XS.S.S.S.3.S.S.k.f S.w S.w S.f S.S.S.=XS.S.L.=XL.",
"S.S.S.k.S.[ S.S.S.S.) S.S.S.S.S.S.S.z.S.F.S.S.S.' S.S.S.S.' S.i.! `.' y.V a.].[.S.S.S.S.S.S.A.S.S.k.S.S.w S.S.S.S.S.=XS.S.=XS.S.",
"S.S.S.S.S.S.S.w S.S.D.S.S.S.S.S.' S.S.S.' ' M S.D.S.S.|.S.S.S.S.' S.p.[.C.`.S.S.S.S.` d.S.S.S.h.S.S.S.w w w w S.S.S.=Xq =XS.S.S.",
"S.S.S.S.S.S.S.w S.S.' S.S.S.D.S.S.S.S.S.S.w D.w S.|.S.S.S.S.S.S.S.' ' b S.A.S.S.S.n.D.S.S.S.S.S.S.S.D.S.w S.S.S.S.D.=X=Xv.' S.D.",
"S.S.S.S.S.S.w w w w S.S.S.S.S.U S.S.S.S.S.w S.S.S.S.S.S.S.S.S.S.S.S.S.S.S.h.S.S.S.S.w S.S.S.S.S.S.S.S.S.w S.S.S.S.S.=XS.=XS.S.S.",
"S.S.S.S.D.S.' w D.S.S.' S.S.S.S.S.D.S.w w w w w w S.S.S.S.I S.M S.S.S.S.S.S.S.S.S.S.S.S.S.S.S.S.w S.S.D.S.S.S.S.S.S.=XS.S.=XS.D.",
"S.S.S.S.S.S.S.D.S.S.S.S.S.S.S.S.b D.S.S.S.w S.S.S.f.S.S.S.S.S.S.S.S.S.n.q S.S.S.o.S.D.S.S.S.S.S.I S.S.S.S.S.S.S.' S.=XS.S.S.=XS.",
"S.S.S.S.S.S.S.S.S.S.S.S.S.S.S.S.S.S.S.S.n S.S.S.S.S.S.S.S.S.S.n.S.S.S.S.S.A.S.S.S.S.S.S.I S.S.S.S.S.S.S.S.S.S.S.S.S.S.S.S.S.S.S."
};
