/* XPM */
static char *_fe1bdfe23d74888f1d8c7e539007e18yBNmK4vlIhEL9kjY[] = {
/* columns rows colors chars-per-pixel */
"64 64 213 2 ",
"   c #D8636F",
".  c #D8626E",
"X  c #D8626F",
"o  c #DB707B",
"O  c #DB6E79",
"+  c #DD7580",
"@  c #D96874",
"#  c #D8616D",
"$  c #E28B93",
"%  c #EFBFC4",
"&  c #DC737E",
"*  c #D8616E",
"=  c #E38F97",
"-  c #D86570",
";  c #E79FA7",
":  c #F0C2C6",
">  c #E38E97",
",  c #F1C8CC",
"<  c #DF808A",
"1  c #D7616D",
"2  c #E79FA6",
"3  c #DF7F89",
"4  c #D96974",
"5  c #E39099",
"6  c #E28992",
"7  c #DC727D",
"8  c #DF7E88",
"9  c #D86470",
"0  c #D7606C",
"q  c #E69BA2",
"w  c #FAE8EA",
"e  c #EAAAB0",
"r  c #DA6C78",
"t  c #D96672",
"y  c #F2CACE",
"u  c #E69AA2",
"i  c #F1C7CB",
"p  c #EDB5BB",
"a  c #EFBDC2",
"s  c #D96772",
"d  c #F0C2C7",
"f  c #E79EA5",
"g  c #E69CA3",
"h  c #F3CFD2",
"j  c #EEB9BF",
"k  c #FBF0F1",
"l  c #E38E96",
"z  c #EDB6BB",
"x  c #EDB7BD",
"c  c #E28A93",
"v  c #DE7983",
"b  c #E79CA4",
"n  c #F1C5CA",
"m  c #EBB0B6",
"M  c #F4D4D7",
"N  c #F9E4E6",
"B  c #ECB3B8",
"V  c #ECB0B6",
"C  c #EAABB1",
"Z  c #DA6D78",
"A  c #E79CA3",
"S  c #E0828C",
"D  c #DA6974",
"F  c #F2CBCF",
"G  c #F5D7DA",
"H  c #E49099",
"J  c #E699A1",
"K  c #F4D1D5",
"L  c #FAEAEC",
"P  c #DD757F",
"I  c #E7A0A7",
"U  c #F8E2E4",
"Y  c #E0838C",
"T  c #D65D69",
"R  c #E1858F",
"E  c #F7DFE1",
"W  c #F2C9CD",
"Q  c #EDB7BC",
"!  c #F7E0E2",
"~  c #D75E6A",
"^  c #E38D95",
"/  c #F8E1E3",
"(  c #E0858E",
")  c #DA6C77",
"_  c #EDB6BC",
"`  c #EEB8BD",
"'  c #EDB8BE",
"]  c #F6DBDE",
"[  c #F6DCDF",
"{  c #F9E8EA",
"}  c #DC757F",
"|  c #DD7883",
" . c #DE7A84",
".. c #D86571",
"X. c #E0848D",
"o. c #DA6B76",
"O. c #E0838D",
"+. c #E79DA4",
"@. c #ECB4B9",
"#. c #E598A0",
"$. c #E4919A",
"%. c #DA6A75",
"&. c #DD7882",
"*. c #E28C94",
"=. c #EDB5BA",
"-. c #E9A6AD",
";. c #DD7782",
":. c #DB6F7A",
">. c #EEBBC0",
",. c #FDF6F7",
"<. c white",
"1. c #F9E6E8",
"2. c #E5979F",
"3. c #F0C4C8",
"4. c #FFFEFE",
"5. c #F6DADC",
"6. c #F0C1C5",
"7. c #FAECED",
"8. c #FCF4F5",
"9. c #E5989F",
"0. c #E8A4AB",
"q. c #FEFBFC",
"w. c #ECB4BA",
"e. c #DB6D78",
"r. c #E0818A",
"t. c #F9E8E9",
"y. c #F9E5E7",
"u. c #F1C6CA",
"i. c #D96773",
"p. c #D7606D",
"a. c #E0818B",
"s. c #FBEDEE",
"d. c #FCF3F4",
"f. c #E1858E",
"g. c #F9E7E9",
"h. c #D96571",
"j. c #D96873",
"k. c #E1868F",
"l. c #FDF6F6",
"z. c #FEFDFD",
"x. c #E4949C",
"c. c #F8E2E5",
"v. c #EBAEB4",
"b. c #ECB1B7",
"n. c #E699A0",
"m. c #F3CDD1",
"M. c #FEFAFA",
"N. c #EFC0C4",
"B. c #F4D1D4",
"V. c #E18891",
"C. c #FDF8F8",
"Z. c #FEF9FA",
"A. c #E18790",
"S. c #EFBEC3",
"D. c #F4D5D8",
"F. c #FEFBFB",
"G. c #E28D95",
"H. c #F3CED2",
"J. c #E79EA6",
"K. c #F4D3D7",
"L. c #EFC0C5",
"P. c #EAA9AF",
"I. c #DA6975",
"U. c #DB6D79",
"Y. c #DB707A",
"T. c #EFBFC3",
"R. c #E49199",
"E. c #FDF8F9",
"W. c #E4939B",
"Q. c #EEBCC1",
"!. c #F4D0D4",
"~. c #F2CCCF",
"^. c #E4929A",
"/. c #FEFAFB",
"(. c #E5959D",
"). c #F7DDDF",
"_. c #F1C5C9",
"`. c #F1C6CB",
"'. c #E39098",
"]. c #F1C4C9",
"[. c #F0C3C8",
"{. c #F5D5D8",
"}. c #DC747F",
"|. c #ECB2B8",
" X c #DA6A76",
".X c #DD7781",
"XX c #E38F98",
"oX c #FDF5F6",
"OX c #DA6B77",
"+X c #E7A0A8",
"@X c #FBEFF0",
"#X c #DC747E",
"$X c #F0C0C5",
"%X c #E8A3AA",
"&X c #EEBABF",
"*X c #FDF7F8",
"=X c #F8E4E6",
"-X c #FEFCFC",
";X c #EAAAB1",
":X c #E9A7AD",
">X c #F1C7CC",
",X c #F7DEE1",
"<X c #DE7C86",
"1X c #DC717C",
"2X c #E8A2A9",
"3X c #E9A4AB",
"4X c #E38D96",
"5X c #E8A0A7",
"6X c #E69AA1",
"7X c #E0828B",
"8X c #D96671",
"9X c #DE7B85",
"0X c #E9A6AC",
/* pixels */
"                                                                                                                                ",
"                                                                                                                                ",
"                                                                                                                                ",
"                                                                                                                                ",
"                                                                                                                                ",
"                                                                                                                                ",
"                                                                                                                                ",
"                                    . .                   .                                                                     ",
"                                  X o O .                 + @                                                                   ",
"                                  # $ % & *           . = % O .                                                                 ",
"                                    - ; : & *       . > , < .       1 #                 . *                                     ",
"                                        2 : & *   . > , 3 #       4 5 6             . . 7 8 9                                   ",
"                                          2 : & 0 > , 3 #       1 q w e 9           r t q y t                                   ",
"                                            2 % u i 3 #         1 p a 9           s d f g h s                                   ",
"                                              j k l 0           1 z x # . . 9 . . 9 c v b h s                                   ",
"                                          . > n m % & *       . r M N f + B , V C Z A S g h s                                   ",
"                                        . > , 3 . 2 : & *       D F G H n h J K L P y I q h s                                   ",
"                                      . > , 3 #     2 : & *     1 p p P U Y T R E + W 2 q h s                                   ",
"                                    . > , 3 #         2 : & .   1 z Q & ! c ~ ^ / + W 2 q h s                                   ",
"                                  * ( i 3 #             ; a ) . 1 _ `   ' ] B [ { } W 2 q h s                                   ",
"                                  . |  ..               ..X.o.  . S O.. ) +.@.#.$.%.6  .&.*.9                                   ",
"                                    . .                   #       . *   . 1 # 1 1   # . . #                                     ",
"                                                                                                                                ",
"                                                                                                                                ",
"                                                                                                                                ",
"                                                                                                                                ",
"                                                                                                                                ",
"                                                                                                                                ",
"                                                                                                                                ",
"                                                                                                                                ",
"                                                                                                                                ",
"                                                                                                                                ",
"                                                                                                                                ",
"                                                                                                                                ",
"                                        # * 9   1 .                                                                             ",
"                                    . t 6 =.i d -.;..                                                                           ",
"                                  . :.>.,.<.<.<.<.1.2.9                                                                         ",
"                                . o.3.<.4.5.x 6.7.<.8.9..                                                                       ",
"                                . 0.4.q.w.e.#   r.5.<.t. ..                                                                     ",
"                              . + y.<.u.i..     p.a.s.<.x                                                                       ",
"                              1 ; <.d.f.1         . z <.g.} .                                                                   ",
"                              h.y <.K j.          1 k.l.z.x.1                                                                   ",
"                            . :.c.<.v.1           . O / <.b.#                                                                   ",
"                            .  .k 4.n.p.            t m.<.n 9                                                                   ",
"                            1 X.l.M.6 1             . N.<.B.s                                                                   ",
"                            1 V.C.Z.A.1             . S.<.D.j.                                                                  ",
"                            # a.8.F.G.1               d <.H.t                                                                   ",
"                            . ;.s.<.J.p.            j.K.<.L.          .     .       . .       . .                               ",
"                            . ) [ <.x .           . & g.<.P.1       I.+.e.i.U.h.    Y.O .     o e..                             ",
"                                T.<.[ Z .         1 R.F.E.$ 1     1 W.Q.t W.!.3 p.$.F W V.1 x.~.W R .                           ",
"                              1 ^.F./.(.p.        t , <.).e..   . e._.Y # Z `.V.O y R '.].v F O.W.[.@                           ",
"                              . ) {.<.] }.p.. . # #.C.4.0..     # 2 |.    9 N.A.X.: 9  X`.I a   o.u..X.                         ",
"                                # XXoX<.K.R OXo +X@X<.{.O .   . #Xi v .   9 $XA.A.L.9 I._.%X&X  I._.v .                         ",
"                                  9 -.*X<.d.).=X-X<./ < *     . ;X:X.     9 $XV.7 F .Xa., S F P X.>Xo.                          ",
"                                    h.#.,XF.<.<.8.`.<X.     * <Xu.1X.     9 _ f.# 2XF ~.2.. 3Xy ~.x..                           ",
"                                      . o 4X5X6X7Xi..       h.z q 1         :.@ . h.3 <X9 X 8X3 9X9                             ",
"                                        . 1 p.p.#         . O 0X) .         .       * .       * .                               ",
"                                                              9                                                                 ",
"                                                                                                                                ",
"                                                                                                                                ",
"                                                                                                                                ",
"                                                                                                                                ",
"                                                                                                                                ",
"                                                                                                                                "
};
