/* XPM */
static char *d9affb43f42644f0a7063d3598b017de7YlHFa0u1YZg1IKY[] = {
/* columns rows colors chars-per-pixel */
"64 64 30 1 ",
"  c None",
". c black",
"X c #3E2723",
"o c #795548",
"O c #9E3219",
"+ c #BF360C",
"@ c #DD2C00",
"# c #A9401C",
"$ c #AE461D",
"% c #AF471E",
"& c #E65100",
"* c #EF6C00",
"= c #EF5350",
"- c #FF6E40",
"; c #E57373",
": c #FF9100",
"> c #EB932F",
", c #FF8A65",
"< c #78909C",
"1 c #BCAAA4",
"2 c gray74",
"3 c #EF9A9A",
"4 c #FFAB91",
"5 c #FFCCBC",
"6 c #FFE0B2",
"7 c #B0BEC5",
"8 c #80D8FF",
"9 c #FFCDD2",
"0 c #FFEBEE",
"q c #FFF3E0",
/* pixels */
"                                                                ",
"                        ++++++++++++++                          ",
"                      +++++++++++++++++++                       ",
"                     +++++++++++++++++++++                      ",
"                   ++++++++++++++++++++++++                     ",
"                  +++++++++++++++++++++++++++                   ",
"                 +++++++++++++++++++++++++++++                  ",
"                +++++++++++++++++++++++++++++++                 ",
"                +++++++++++++++++++++++++++++++                 ",
"               +++++++++++++++qqq+++++++++++++++                ",
"              ++++++++++++++++qqqq++++++++++++++                ",
"              ++++++++++++++++qqqq+++++++++++++++               ",
"              ++++++++++++++q&qqqqq++++++++++++++               ",
"             ++++++++++++++q&+qqqqq++++++++++++++               ",
"             +++++++++++++qq+qqqqqq+++++++++++++++              ",
"             +++++++++++Oqq&qqqqqqqq++++++++++++++              ",
"            +++++++++++qqqOqqqqqqqqqq+++++++++++++              ",
"            ++++++++++ooo&qqqqqqqqqqq++++++++++++++             ",
"            +++++++++OqqOqOOqqqqqqOOqq+++++++++++++             ",
"           ++++++++++OqOOOOqqqqqqqqOOOO++++++++++++             ",
"           ++++++++++O&OOqqqqqqqqqqqqqOO++++++++++++            ",
"           +++++++++&&&qqqqqqqqqqqqqqqqOO+++++++++++            ",
"           ++++++++&&XXqqqqqqqqqqqqqqqqq++++++++++++            ",
"           ++++++++&qqqqqqqqqqqqqqqqqqqqq+++++++++++            ",
"          +++++++++qXXqqqqqqqqqqqqqqqqqqq++++++++++++           ",
"          +++++++++q8XXqqqqXXqqqqqqXXqqqX++++++++++++           ",
"          @++++++++6X88XXXXqqqqqqqq88XXXq++q+++++++++           ",
"          @+++++++,458X8X8X8qqqqqqq8X8X8X&+5q++++++++           ",
"          @+++++++,49888X88Xqqqqq2qq88X88X&9qq+++++++           ",
"          @+++++++,49888888866666q2q88888&99qq+++++++           ",
"          ++++++++<6q8888888qq1112qq88888&q<<q+++++++           ",
"          ++++++++,,q888888qqqqqqqqq88888<<<q#+++++++           ",
"          +++++++++,qqq8888qqqqqqqqqq8888<q*$$+++++++           ",
"          +++++++++,66qq888q333333qqq888<<q*+@+++++++           ",
"         ++++++++++,,6qq88q;33;;;33;q88q<&q*+++++++++           ",
"         ++++++++++-,,6q883300000003388q<6**+++++++++           ",
"         +++++++++++-,6q8833;;;;;===388q<<*++++++++++           ",
"         ++++++++++++,7688qqqqqqqqqqq886+++++++++++++           ",
"          +++++++++++++-888qqqqqqqqqq886+++++++++++++           ",
"          +++++++++++++--88qqqqqqqqqq66+++++++++++++++          ",
"          ++++++++++++++-886qqqqqqqqq6++++++++++++++++          ",
"          ++++++++++++++++>444444qq66+++++++++++++++++          ",
"         +++++++++++++++++>44466qqq66+++++++++++++++++>         ",
"         +++++++++++++++++>4666qqqq66++++++++++++++++++         ",
"         ++++++++++++++++++..........++++++++++++++++++         ",
"        +++++++++++++++++++..........++++++++++++++++++         ",
"        +++++++++++++++++++..........++++++++++++++++++         ",
"        ++++++++++++++++++...........+++++++++++++++++++        ",
"        ++++++++++++++++++...........+++++++++++++++++++        ",
"        ++++++++++++++++++............++++++++++++++++++:       ",
"        +++++++++++++++................+++++++++++++++++        ",
"        ++++++++++++.....................+++++++++++++++        ",
"        ++++++++++.........................+++++++++++++        ",
"        ++++++++................................++++++++        ",
"        ++++++.....................................+++++        ",
"        ++++.........................................+++        ",
"        +++...........................................++        ",
"        ++..............................................        ",
"        ++..............................................        ",
"         ...............................................        ",
"         ...............................................        ",
"         ...............................................        ",
"         ...............................................        ",
"         ...............................................        "
};
