/* XPM */
static char *U2NyZWVuc2hvdCstKzIwMjItMDQtMTJUMjE1NTIzLjE5MyslMjgxJTI5[] = {
/* columns rows colors chars-per-pixel */
"64 64 255 2 ",
"   c #5CB85B",
".  c #5BB75A",
"X  c #5BB85A",
"o  c #73C272",
"O  c #6EC06D",
"+  c #5AB759",
"@  c #7BC67A",
"#  c #DFF1DE",
"$  c #D3ECD2",
"%  c #DFF1DF",
"&  c white",
"*  c #A9D9A8",
"=  c #C8E7C8",
"-  c #6CBF6B",
";  c #70C16F",
":  c #60BA5F",
">  c #5AB758",
",  c #C8E7C7",
"<  c #6ABE69",
"1  c #8DCD8C",
"2  c #E3F3E3",
"3  c #A4D7A3",
"4  c #7FC77D",
"5  c #68BD67",
"6  c #6FC06E",
"7  c #5EB95D",
"8  c #62BA61",
"9  c #65BC64",
"0  c #64BB63",
"q  c #63BB62",
"w  c #5FB95E",
"e  c #62BB61",
"r  c #6BBE6A",
"t  c #5DB85C",
"y  c #69BE68",
"u  c #61BA60",
"i  c #5DB95C",
"p  c #71C170",
"a  c #66BC65",
"s  c #F7FCF7",
"d  c #EDF7EC",
"f  c #C7E7C7",
"g  c #CBE8CB",
"h  c #D7EDD6",
"j  c #88CB87",
"k  c #8ECE8D",
"l  c #B2DDB1",
"z  c #5CB85A",
"x  c #A5D8A4",
"c  c #9DD49D",
"v  c #B1DDB0",
"b  c #D4ECD4",
"n  c #D3ECD3",
"m  c #94D093",
"M  c #C4E5C3",
"N  c #CFEACE",
"B  c #7BC57A",
"V  c #86CA85",
"C  c #D1EBD0",
"Z  c #D2EBD2",
"A  c #BFE3BE",
"S  c #D8EED8",
"D  c #9ED59E",
"F  c #DBEFDA",
"G  c #BBE1BB",
"H  c #99D298",
"J  c #F3FAF3",
"K  c #81C880",
"L  c #E2F2E1",
"P  c #9AD399",
"I  c #C5E6C4",
"U  c #B4DEB3",
"Y  c #A9DAA9",
"T  c #75C374",
"R  c #7CC67B",
"E  c #B8E0B8",
"W  c #BEE2BD",
"Q  c #6BBF6A",
"!  c #7EC77D",
"~  c #79C478",
"^  c #C2E5C2",
"/  c #98D297",
"(  c #E3F3E2",
")  c #9CD49B",
"_  c #D3EBD2",
"`  c #64BC63",
"'  c #C2E4C1",
"]  c #C6E6C6",
"[  c #8BCD8B",
"{  c #F4FAF4",
"}  c #C7E7C6",
"|  c #9FD59E",
" . c #B3DEB2",
".. c #AFDCAE",
"X. c #B6DFB6",
"o. c #57B656",
"O. c #59B758",
"+. c #D1EBD1",
"@. c #93D092",
"#. c #58B657",
"$. c #E4F3E4",
"%. c #CBE8CA",
"&. c #BCE2BB",
"*. c #B9E0B8",
"=. c #D7EED7",
"-. c #D0EBD0",
";. c #74C273",
":. c #BDE2BD",
">. c #85CA85",
",. c #A0D59F",
"<. c #ABDAAA",
"1. c #80C87F",
"2. c #CEEACE",
"3. c #9DD49C",
"4. c #8FCE8E",
"5. c #DAEFDA",
"6. c #84C983",
"7. c #85CA84",
"8. c #87CB87",
"9. c #B2DDB2",
"0. c #79C578",
"q. c #CCE9CC",
"w. c #7AC579",
"e. c #B9E0B9",
"r. c #8ECD8C",
"t. c #91CF90",
"y. c #ADDBAD",
"u. c #DEF1DE",
"i. c #78C477",
"p. c #C9E7C9",
"a. c #D2EBD1",
"s. c #92D091",
"d. c #B5DFB4",
"f. c #6DBF6C",
"g. c #8DCD8D",
"h. c #B8E0B7",
"j. c #77C476",
"k. c #7EC67D",
"l. c #D0EAD0",
"z. c #B6DFB5",
"x. c #95D194",
"c. c #C7E6C6",
"v. c #D5ECD4",
"b. c #BDE2BC",
"n. c #67BD66",
"m. c #78C478",
"M. c #72C171",
"N. c #DCF0DC",
"B. c #D5EDD5",
"V. c #76C375",
"C. c #9BD39A",
"Z. c #F4FAF3",
"A. c #F7FBF7",
"S. c #ECF7EC",
"D. c #EDF7ED",
"F. c #D9EED9",
"G. c #FDFEFD",
"H. c #FCFEFC",
"J. c #7FC77E",
"K. c #EEF8EE",
"L. c #E6F4E6",
"P. c #F9FCF8",
"I. c #85C984",
"U. c #E9F5E8",
"Y. c #F8FCF8",
"T. c #EFF8EF",
"R. c #FBFDFB",
"E. c #83C982",
"W. c #F6FBF6",
"Q. c #A2D7A2",
"!. c #F9FCF9",
"~. c #8ACC89",
"^. c #DBEFDB",
"/. c #E1F2E1",
"(. c #B7E0B6",
"). c #FAFDFA",
"_. c #9ED49D",
"`. c #B0DDB0",
"'. c #B3DEB3",
"]. c #E0F2E0",
"[. c #E5F4E5",
"{. c #A8D9A7",
"}. c #6DBF6B",
"|. c #E9F6E9",
" X c #FEFEFE",
".X c #E5F4E4",
"XX c #A3D7A2",
"oX c #E8F5E7",
"OX c #97D196",
"+X c #EEF7ED",
"@X c #89CB88",
"#X c #B7DFB6",
"$X c #C3E5C2",
"%X c #EAF6EA",
"&X c #70C06F",
"*X c #74C373",
"=X c #F2F9F2",
"-X c #E7F5E7",
";X c #A1D6A0",
":X c #D6EDD5",
">X c #EBF6EB",
",X c #89CC88",
"<X c #9BD39B",
"1X c #DDF0DD",
"2X c #EAF6E9",
"3X c #8BCC8A",
"4X c #8CCD8B",
"5X c #FDFEFC",
"6X c #6DC06C",
"7X c #A6D8A5",
"8X c #A2D6A1",
"9X c #87CB86",
"0X c #C5E6C5",
"qX c #D0EACF",
"wX c #E2F2E2",
"eX c #C6E6C5",
"rX c #7DC67C",
"tX c #F3FAF2",
"yX c #F0F8F0",
"uX c #C1E4C0",
"iX c #5BB759",
"pX c #BAE1BA",
"aX c #D9EED8",
"sX c #DDF0DC",
"dX c #8ECE8E",
"fX c #82C881",
"gX c #D4ECD3",
"hX c #72C271",
"jX c #F5FAF4",
"kX c #96D195",
"lX c #CEE9CD",
"zX c #A7D8A6",
"xX c #82C981",
"cX c #E0F1E0",
"vX c #A5D8A5",
"bX c #BEE3BD",
"nX c #C0E3BF",
"mX c #F5FBF5",
"MX c #96D196",
"NX c #A7D9A6",
"BX c #99D399",
"VX c #97D296",
"CX c #92CF91",
"ZX c #77C477",
"AX c #7EC77E",
"SX c #C1E4C1",
"DX c #A0D69F",
"FX c #9ED59D",
"GX c #9FD59F",
"HX c #C9E7C8",
"JX c #8ECD8D",
"KX c #90CE8F",
"LX c #BEE3BE",
"PX c #61BA5F",
"IX c #66BD65",
/* pixels */
"                                                                                                                                ",
"                                                                                                                                ",
"                                                                                                                                ",
"                                                                                                                                ",
"                                                                                                                                ",
"                                                                                                                                ",
"                                                                                                                                ",
"                                . X                                                                                             ",
"                              . o O +                                                                                           ",
"                            + @ # $ o X                                                                                         ",
"                          + @ % & & * X                                                                                         ",
"                  .     + @ % & & = - X                                                                                         ",
"                  ; : > @ % & & , < +       X .     X   X       . .       . X     X .       . X     . X                         ",
"                1 2 3 4 # & & , < +         5 6 7 8 9   0 q X 7 ; 6 w . e o r t X y o u X i 6 y   w p a                         ",
"            X - % & s d & & f < +       X 6 g h j k l z x c 8 v b n m 6 M $ N B V C Z A y 1 S = - D F G q                       ",
"              7 H J & & & f < +         + K L x 6 P I   U Y m b T T R E W Q ! ~ Z ^ / ( ) * _ m ` ' ] [ w                       ",
"                  H { & } < +             u | S 3 ) M +  .* ..X.o.O.w +.@.o.#.- $.%.&.f m 6 *.=.K ~ M -.;..                     ",
"                    P :.< +             + >.,.<.N @.=.1.2.3.4.5.6.7.8.9.= 0.4.K q...w.e.r.3.t.-.y.3 k u.4.O.                    ",
"                    t : X               . i.p.a.s.a d.n W f.: x -.N g.< h.+.= j.k.f l.z.- x.n c.i.x v.b.< X                     ",
"                                          X e a   X 7 5 w X     a 9   X i 5 e   . u n.t X   a e . t 5 : X                       ",
"                                              X       X         X X       X         X       X       X                           ",
"                                                                                                                                ",
"                                                                                                                                ",
"                                                                                                                                ",
"                                                                                                                                ",
"                                                                                                                                ",
"                                                                                                                                ",
"                                                                                                                                ",
"                                                                                                                                ",
"                                                                                                                                ",
"                                                                                                                                ",
"              z X X                       X + + .                         . + + X                                               ",
"            t ` 9 9 0 7                 + n.m.! p w +                 + w M.! i.a +                                             ",
"          + k N.u.u.B.V.+           X u C.F Z.A.S.' w..             X R M D.s J F./ : X                                         ",
"        X a Z G.H.& s J.+         X e z.H.& K.L.P.& L.I..         . j U.& Y.L.T.& R.l u X                                       ",
"          e K E.H W.W.! +         X Q.G.!.U T r ~.^.& /.p .     + ;.$.& S j r V.(.).H._..                                       ",
"            + #.T J W.! +       . ;.U.& `.7 + X O.V.2 & '.      t h.& ].o O.X + w d.& [.p .                                     ",
"              + j.J W.! +       + {.& /.}..       + | & |.p . . ;.d  XP O.      + 6 .X& XX+                                     ",
"              + j.J W.! +       q B.& ..+         . 6 oX& OXO.O.) & $.- X         X U & C u                                     ",
"              + j.J W.! +     . o +XR.@XO.          7 , & #XX   &.& $Xt           O.g.G.%X&X.                                   ",
"              + j.J W.! +     + 7.!.T.*X+           + `.& g 7 : C & <.+           + i.=Xs K +                                   ",
"              + j.J W.! +     O.4. X-X- X           O.;X& :Xe q F.& 3.O.          . &X>XH.,XO.                                  ",
"              + j.J W.! +     O.t.& L.Q X           O.<X& 5.0 a 1X& H O.          . 6 2XG.3XO.                                  ",
"              + j.J W.! +     O.4X5X|.6XX           + 7X& a.: u :X& 8XO.          . p D.R.9X>                                   ",
"              + j.J W.! +     + ! W.{ @ +           . h.& 0Xt 7 %.&  .+           + J.W.J w.+                                   ",
"              + j.J W.! +     X - L.& x.O.          e b & <.+ + `.& qXu           O.P & wX< X                                   ",
"              + j.J W.! +       7 eX& ^ 7         + rXtX!.9X+ + 4XR.yX0.+         w f & uXt       7 . iX  + +   + +             ",
"              + j.J W.! +       + @.H.=X1.O.    X t pX& aXa X X 5 sX& z.        O.6.{ R.dX+   . T 7.M.~ 7 fX! 7 J.K 7           ",
"              + j.J W.! +       X 9 a.& gXhXO.O.i P W.H.OX+     + C.G.jXkXt O.O.*X=.& lX0 X   7 ;XT ! zXK 7XzX@.7X7XrX+         ",
"              + j.J W.! +         + xXS.& cXvXOXbXA.& nXe X     X 0 M & mX&.MXNXwX& %XJ.+   + J.BX. ; 8XVX! 9X&.K ! CX+         ",
"              + ZX{ s AX+           X 3X( & & & & ).W y X         . r SXR.& & & & ].9XX     e 3 O + p XXj 3.DX| FX3.E.+         ",
"              X 5 FXGXr X             . p NXHX-.b.JXu X             . e KXLXC = vX&X.     + @Xt.. X 9 B e t.4Xq 1 4.u           ",
"                  O.O.X                 . + 7 :   +                     +   PX7 + .         rXIXX     .   + +   + +             ",
"                                                                                            X                                   ",
"                                                                                                                                ",
"                                                                                                                                ",
"                                                                                                                                ",
"                                                                                                                                ",
"                                                                                                                                ",
"                                                                                                                                ",
"                                                                                                                                ",
"                                                                                                                                ",
"                                                                                                                                ",
"                                                                                                                                "
};
