/* XPM */
static char *_a4cec3444d5471eee2b8e9848257ea36rWd1tEXC2U6Ot6r[] = {
/* columns rows colors chars-per-pixel */
"64 64 3 1 ",
"  c None",
". c gray13",
"X c #D32F2F",
/* pixels */
"                                                                ",
"                                                                ",
"                                                                ",
"                                                                ",
"                                                                ",
"                                                                ",
"                                                                ",
"                                                                ",
"                                                                ",
"               ........                   .........             ",
"            ..............             ...............          ",
"          .................           ..................        ",
"         ...................         ....................       ",
"       .........XXXXXX.......       ........XXXXXX........      ",
"       ......XXXXXXXXXXXX.....     ......XXXXXXXXXXXX.....      ",
"      ......XXXXXXXXXXXXXX....     .....XXXXXXXXXXXXXX.....     ",
"     ......XXXXXXXXXXXXXXXX....   .....XXXXXXXXXXXXXXXX.....    ",
"     .....XXXXXXXXXXXXXXXXXX...   ....XXXXXXXXXXXXXXXXXX.....   ",
"    .....XXXXXXXXXXXXXXXXXXXX..   ...XXXXXXXXXXXXXXXXXXXX....   ",
"    ....XXXXXXXXXXXXXXXXXXXXX..   ..XXXXXXXXXXXXXXXXXXXXXX....  ",
"    ....XXXXXXXXXXXXXXXXXXXXX..   ..XXXXXXXXXXXXXXXXXXXXXX....  ",
"    ....XXXXXXXXXXXXXXXXXXXXX..  ...XXXXXXXXXXXXXXXXXXXXXX....  ",
"   ....XXXXXXXXXXXXXXXXXXXXX...  ..XXXXXXXXXXXXXXXXXXXXXXXX...  ",
"   ....XXXXXXXXXXXXXXXXXXXXX...  ..XXXXXXXXXXXXXXXXXXXXXXXX...  ",
"   ....XXXXXXXXXXXXXXXXXXXXX...  ..XXXXXXXXXXXXXXXXXXXXXXXX...  ",
"   ....XXXXXXXXXXXXXXXXXXXXXX... .....XXXXXXXXXXXXXXXXXXXXX...  ",
"   ....XXXXXXXXXXXXXXXXXXXXXXX.. .....XXXXXXXXXXXXXXXXXXXXX...  ",
"   ....XXXXXXXXXXXXXXXXXXXXXXX...  ...XXXXXXXXXXXXXXXXXXXXX...  ",
"   .....XXXXXXXXXXXXXXXXXXXXXX...  ..XXXXXXXXXXXXXXXXXXXXX....  ",
"   .....XXXXXXXXXXXXXXXXXXXXXXX... ..XXXXXXXXXXXXXXXXXXXXX....  ",
"   .....XXXXXXXXXXXXXXXXXXXXXXX... ..XXXXXXXXXXXXXXXXXXXXX....  ",
"   .....XXXXXXXXXXXXXXXXXXXXXXXX.. ..XXXXXXXXXXXXXXXXXXXX....   ",
"    .....XXXXXXXXXXXXXXXXXXXXXX... ....XXXXXXXXXXXXXXXXX.....   ",
"    ......XXXXXXXXXXXXXXXXXXXX.... ......XXXXXXXXXXXXXX.....    ",
"     ......XXXXXXXXXXXXXXXXXX....    ....XXXXXXXXXXXXX.....     ",
"      .....XXXXXXXXXXXXXXXXXX...      ...XXXXXXXXXXXX.....      ",
"       .....XXXXXXXXXXXXXXXXX...     ...XXXXXXXXXXXXX.....      ",
"        .....XXXXXXXXXXXXXXXXX..     ...XXXXXXXXXXXX.....       ",
"        ......XXXXXXXXXXXXXXXX..    ...XXXXXXXXXXXXX....        ",
"         ......XXXXXXXXXXXXXXX..    ...XXXXXXXXXXXX....         ",
"          .....XXXXXXXXXXXXXXX...   ..XXXXXXXXXXXX.....         ",
"           .....XXXXXXXXXXXXXX...  ...XXXXXXXXXXX.....          ",
"           ......XXXXXXXXXXXXXX... ..XXXXXXXXXXX.....           ",
"            ......XXXXXXXXXXXXX... ..XXXXXXXXXX.....            ",
"              .....XXXXXXXXXXXX..  ..XXXXXXXXX.....             ",
"               .....XXXXXXXXXXX..  ...XXXXXXX.....              ",
"                .....XXXXXXXXXX..  ....XXXXXX....               ",
"                ......XXXXXXXX...   ...XXXXX.....               ",
"                 ......XXXXXX....   ...XXXX.....                ",
"                  ......XXXXX...    ...XXX.....                 ",
"                    .....XXXX...    ..XXX.....                  ",
"                    ......XXXX...   ..XX.....                   ",
"                     ......XXXX...  ..XX.....                   ",
"                      ......XXX.... ..X.....                    ",
"                       ......XXX... ........                    ",
"                        ......XXX.. .......                     ",
"                         ......XX.. .....                       ",
"                           ....XX.. ....                        ",
"                           .....X.. ....                        ",
"                            ....... ...                         ",
"                             ...... ...                         ",
"                               .... ..                          ",
"                                                                ",
"                                                                "
};
