/* XPM */
static char *_82375cedf174a4acd81b55e1cec58b51wInwEaYmxAFVGBN[] = {
/* columns rows colors chars-per-pixel */
"64 64 18 1 ",
"  c None",
". c black",
"X c #111C21",
"o c #20343E",
"O c #538CA5",
"+ c #5996B1",
"@ c #5B9AB5",
"# c #5E9EBB",
"$ c #5E9FBB",
"% c #60A2BF",
"& c #70BDDF",
"* c #72C1E3",
"= c #73C1E3",
"- c #73C3E5",
"; c #75C7EA",
": c #80D8FF",
"> c #81D8FF",
", c #80D9FF",
/* pixels */
"                                                                ",
"                                                                ",
"                                                                ",
"                                                                ",
"                                                                ",
"                                                                ",
"                                                                ",
"                                                                ",
"                                                                ",
"                                                                ",
"                                                                ",
"                                                                ",
"                                                                ",
"                                                                ",
"                                                                ",
"                                                                ",
"                                                                ",
"                                                                ",
"                       :                                        ",
"                     :                                          ",
"                    :  , :                           ::         ",
"                      ,,, :                        ::           ",
"                     ,,,,,:                       :: ,,::       ",
"                      ,,,                           ,,,,::      ",
"                   : ..,                           ,,,,,,:      ",
"                     OO,                 :          ,,,,        ",
"    :               X..  ::            , >       ,,  ,,         ",
"  :                :O.                :: , ,       ;--@         ",
" :  : :          :: O.                ::,,,,,      ,XX :::      ",
"   :,, :        :::,,O:               :,,,,,,    ,  O.          ",
"  ::,,,:         :,,,,&:               ,,,,,=..., ,,OO          ",
"   :,,           ,,,,,,&             : ,,,,,O....O,,,.:         ",
":   ,      :    XX,,,,,O.            :XO,,,    ..,,,,,::        ",
"  ::, .. : :   OOX ,,, ...           :.O:, ::     ,,,,,:        ",
"      OOO: , O.XO:::,   ..o         :.X@:: ::  :  ,,,,,:        ",
"       .O ,,,OOX  :::::: ooX:     :  O.    ::   :::,,,          ",
"       ..,,,,,:       ::  -X.:   : ::.&         : ::,::         ",
"        X,,,,,:          : O,.:   :,:: :          ::: ::        ",
"       :  ,,,             ::,, :  ,,,,,::             ::        ",
"       : :O,              ,:,,,&OX.,,,,,::                      ",
"         :O%.::            ,,,,,&.X ,,,,,:                      ",
"           XX::         :  .,,,  :::,:,,                        ",
"           .X            ::&;,    :::::+o                       ",
"           .O             .O$:::    :::%+::                     ",
"          :XO             ..   ::      O&O                      ",
"         ::X,::        ::.XX          ::.,,::                   ",
"         : ,,,::     ::  ..             ,,,,::                  ",
"          ,,,,,:    :: ,,OO            ,,,,,,:                  ",
"          ,,,,,OO.....,,,,OO            ,,,,                    ",
"        :  ,,,,,O....,,,,,,O.   : :  :O..,,                     ",
"        : :O,,,       ,,,, ...: :    ..O&,,                     ",
"         ::O%,::   ::  ,,   .O.:, ,.+.X    :::                  ",
"           O+,::     ::,,    ..,,,,,.O                          ",
"          ...  ::        :::  ,,,,,,,:                          ",
"         :..                   ,,,,,                            ",
"       : ...                : : , ,                             ",
"      :  ,.:                  ::::,                             ",
"        ,,, :                     ::::                          ",
"       ,,,,,:                                                   ",
"        ,,,                                                     ",
"     :   ,                                                      ",
"       ::,                                                      ",
"           ::                                                   ",
"                                                                "
};
