/* XPM */
static char *cGl4aWwtZnJhbWUtMCslMjgxMSUyOQ__[] = {
/* columns rows colors chars-per-pixel */
"64 64 13 1 ",
"  c black",
". c #1B5E20",
"X c #6D4C41",
"o c #837772",
"O c #A1887F",
"+ c #936DB0",
"@ c #00ACC1",
"# c #BCAAA4",
"$ c #80D8FF",
"% c #B3E5FC",
"& c gray77",
"* c #F9FBE7",
"= c gray96",
/* pixels */
"OOOOOOOOOOOOOOOOOOOOOOOOOOOOOOOOOOOOOOOOOOOOOOOOOOOOOOOOOOOOOOOO",
"OOOOOOOOOOOOOOOOOOOOOOOOOOOOOOOOOOOOOOOOOOOOOOOOOOOOOOOOOOOOOOOO",
"OOOOOOOOO                                               OOOOOOOO",
"OOOOOOOOO $$$$$$$$$$$$$$$$$$$$$$$$$$$$$$$$$$$$$$$$$$$$$ OOOOOOOO",
"OOOOOOOOO $%%%%%%%%%%%%%%%%%%%%%%%%%%%%%%%%%%%%%%%%%%%$ OOOOOOOO",
"OOOOOOOOO $%%%%%%%%%@%%%@%%@@%%@%%@%@%%@%%@@%%%%%%%%%%$ OOOOOOOO",
"OOOOOOOOO $%%%%%%%%%@@%@@%@%%@%@%@%%@%@%%@%%@%%%%%%%%%$ OOOOOOOO",
"OOOOOOOOO $%%%%%%%%%@%@%@%@%%@%@@%%%@@%%%@%%@%%%%%%%%%$ OOOOOOOO",
"OOOOOOOOO $%%%%%%%%%@%%%@%@%%@%@%@%%@%@%%@%%@%%%%%%%%%$ OOOOOOOO",
"OOOOOOOOO $%%%%%%%%%@%%%@%%@@%%@%%@%@%%@%%@@%%%%%%%%%%$ OOOOOOOO",
"OOOOOOOOO $%%%%%%%%%%%%%%%%%%%%%%%%%%%%%%%%%%%%%%%%%%%$ OOOOOOOO",
"OOOOOOOOO $%%%%%%%%%%%%%%%%%%%%%%%%%%%%%%%%%%%%%%%%%%%$ OOOOOOOO",
"OOOOOOOOO $$$$$$$$$$$$$$$$$$$$$$$$$$$$$$$$$$$$$$$$$$$$$ OOOOOOOO",
"OOOOOOOOO                                               OOOOOOOO",
"OOOOOOOOOOOOOOOOOOOOOOOOOOOOOOOOOOOOOOOOOOOOOOOOOOOOOOOOOOOOOOOO",
"OOOOOOOOOOOOOOOOOOOOOOOOOOOOOOOOOOOOOOOOOOOOOOOOOOOOOOOOOOOOOOOO",
"                                                                ",
"########### XXXXXXXXXXXXXXXXXXXXXXXXXXXXXXXXXXXXX ##############",
"########### X             X                     X ##############",
"########### X =========== X =================== X ##############",
"ooooooooooo X =========== X =================== X oooooooooooooo",
"ooooooooooo X =========== X =================== X oooooooooooooo",
"########### X =========== X =================== X ##############",
"########### X =========== X =================== X ##############",
"########### X =========== X =================== X ##############",
"ooooooooooo X =========== X =================== X oooooooooooooo",
"ooooooooooo X =========== X =================== X oooooooooooooo",
"########### X =========== X =================== X ##############",
"###########     ========= X =================== X ##############",
"###########  ++ ========= X =================== X ##############",
"ooooooooo    ++ ========= X =================== X     ###   ####",
"ooooo     ++ ++   ======= X =================     +++ ooo ++  oo",
"####  ++  ++ ++++ ======= X ================= +++ +++     +++ oo",
"#### ++++ +++++++ ======= X ================= +++ +++ +++ +++ ##",
"#### +++ ++++++++  ====== X ================= +++++++++++++++ ##",
"oooo +++++++++++++ ====== X ================= +++++++++++++++ ##",
"o    +++++++++++++   ==== X ================  +++++++++++++++   ",
"# .................. ==== X ================ .................. ",
"# .................. ==== X =    =========== .................. ",
"# ..................      X = XX      ===    .................. ",
"  ..................  XXXXX = XXXXXXX === XXX.................. ",
"OOOOOOOOOOOOOOOOOOOOO XXXXX = XXXXXXX === XOOOOOOOOOOOOOOOOOOOOO",
"O*****O******O******O     X =         === XO*****O******O******O",
"O*****O******O******O === X ============= XO*****O******O******O",
"O*****O******O******O === X ============= XO*****O******O******O",
"O*****O******O******O === X ============= XO*****O******O******O",
"O*****O******O******O === X ============= XO*****O******O******O",
"O*****O******O******O === X ============= XO*****O******O******O",
"O*****O******O******O === X ============= XO*****O******O******O",
"O*****O******O******O === X ============= XO*****O******O******O",
"O*****O******O******O === X ==========&&& XO*****O******O******O",
"O*****O******O******O === X ==========&&& XO*****O******O******O",
"O*****O******O******O === X ====&&&&&&&&& XO*****O******O******O",
"O*****O******O******O === X ====&&&&&&&&& XO*****O******O******O",
"O*****O******O******O === X =&&&&&&&&&&&& XO*****O******O******O",
"O*****O******O******O === X =&&&&&&&&&&&& XO*****O******O******O",
"O*****O******O******O === X =&&&&&&&&&&&& XO*****O******O******O",
"O*****O******O******O === X &&&&&&&&&&&&& XO*****O******O******O",
"O*****O******O******O &&& X &&&&&&&&&&&&& XO*****O******O******O",
"O*****O******O******O &&& X &&&&&&&&&&&&& XO*****O******O******O",
"O*****O******O******O &&& X &&&&&&&&&&&&& XO*****O******O******O",
"O*****O******O******O &&& X &&&&&&&&&&&&& XO*****O******O******O",
"O*****O******O******O     X               XO*****O******O******O",
"OOOOOOOOOOOOOOOOOOOOO XXXXXXXXXXXXXXXXXXXXXOOOOOOOOOOOOOOOOOOOOO"
};
