/* XPM */
static char *_a4fcc6778fa4149f5ede615f935a63ahPGh5mHno4v6BahZ[] = {
/* columns rows colors chars-per-pixel */
"64 64 2 1 ",
"  c #263137",
". c #37474F",
/* pixels */
"................................................................",
"................................................................",
"................................................................",
"................................................................",
"................................................................",
"................................................................",
"................................................................",
"................................................................",
"................................................................",
"................................................................",
"................................................................",
"...........................         ............................",
"........................   .........   .........................",
"......................  ...............  .......................",
"..................... ................... ......................",
".................... ..................... .....................",
"................... ....................... ....................",
".................. ......................... ...................",
"................. ........................... ..................",
"................ ............................. .................",
"............... ............................... ................",
"............... ............................... ................",
".............. ........... ......... ........... ...............",
".............. ........... ......... ........... ...............",
".............. ........... ......... ........... ...............",
"............. ............ ......... ............ ..............",
"............. ............ ......... ............ ..............",
"............. ............ ......... ............ ..............",
"............. ............ ......... ............ ..............",
"............. ............ ......... ............ ..............",
"............. ................................... ..............",
"............. ................................... ..............",
"............. ................................... ..............",
"............. ................................... ..............",
".............. ................................. ...............",
".............. ...............   ............... ...............",
".............. .............  ...  ............. ...............",
"............... ............ ..... ............ ................",
"............... ........... ....... ........... ................",
"................ .......... ....... .......... .................",
"................. ......... ....... ......... ..................",
".................. ......................... ...................",
"................... ....................... ....................",
".................... ..................... .....................",
"..................... ................... ......................",
"......................  ...............  .......................",
"........................   .........   .........................",
"...........................         ............................",
"................................................................",
"................................................................",
"................................................................",
"................................................................",
"................................................................",
"................................................................",
"..... ... .   .   ...  ...  ..    ..............................",
".....  .  .. .. .. . .. . .... .................................",
"..... . . .. ..   ..    . .  .   ...............................",
"..... ... .. .. . .. .. . .. . .................................",
"..... ... .   . .. . .. ..  ..    ..............................",
"................................................................",
"................................................................",
"................................................................",
"................................................................",
"................................................................"
};
