/* XPM */
static char *_d272d17c0bf41ebf7eb5ff1ae1a24dezARXJwZt7fgAFULc[] = {
/* columns rows colors chars-per-pixel */
"64 64 2 1 ",
"  c gray88",
". c #EEEEEE",
/* pixels */
"................................................................",
"................................................................",
"................................................................",
"................................................................",
"................................................................",
"................................................................",
"................................................................",
"................................................................",
"................................................................",
"................................................................",
"................................................................",
"................................................................",
"..................      ................      ..................",
"..................      ................      ..................",
"..................      ................      ..................",
"..................      ................      ..................",
"..................      ................      ..................",
"..................      ................      ..................",
"..................      ................      ..................",
"..................      ................      ..................",
"..................      ................      ..................",
"..................      ................      ..................",
"..................      ................      ..................",
"..................      ................      ..................",
"..................      ................      ..................",
"..................      ................      ..................",
"..................      ................      ..................",
"..................      ................      ..................",
"..................      ................      ..................",
"..................      ................      ..................",
"..................      ................      ..................",
"..................      ................      ..................",
"..................      ................      ..................",
"..................      ................      ..................",
"..................      ................      ..................",
"..................      ................      ..................",
"................................................................",
"................................................................",
"................................................................",
"................................................................",
"................................................................",
"......................                ..........................",
"...................                       ......................",
"................                            ....................",
".............                                ...................",
"...........                                    .................",
".........                                        ...............",
"........                                           .............",
".......                  ...........                ............",
".......              .................               ...........",
"......             ....................               ..........",
"......           ........................              .........",
".....          ............................             ........",
"....          ...............................            .......",
"....         .................................           .......",
"....        ...................................           ......",
"...         ....................................           .....",
"...        ......................................          .....",
"...        .......................................         .....",
"...       .........................................        .....",
"...       .........................................        .....",
"...       ..........................................       .....",
".....................................................      .....",
"................................................................"
};
