/* XPM */
static char *_7fb3003b6c9456783a9038798ff45b0iU68HhkMrn953S7m[] = {
/* columns rows colors chars-per-pixel */
"64 64 22 1 ",
"  c None",
". c black",
"X c gray30",
"o c #7D6E57",
"O c #435761",
"+ c #576D6B",
"@ c #852508",
"# c #BF360C",
"$ c #D50000",
"% c #A76B6B",
"& c #D27255",
"* c #B29C7C",
"= c #607D8B",
"- c #7C9C99",
"; c #B28F93",
": c #AFA3A1",
"> c #B2B2B2",
", c #EF9A9A",
"< c #FFE0B2",
"1 c #B2DFDB",
"2 c #FFCDD2",
"3 c white",
/* pixels */
"                     XXXX..............XXX                      ",
"                  XXXX...##############..XXX                    ",
"                 XX...###################..XX                   ",
"                XX..#######################.XX                  ",
"                X.##########################.X                  ",
"              XX.######&&..##################.XX                ",
"              X.#####&&&.&&.#########......###.X                ",
"              X.####&&&&.&&&.######..&&&&&&###.XX               ",
"             X.####&&&&X&&&&&.###..&&&&&&&&&.##.X               ",
"             X.###&&&&&..&&&&&&&&&&&&&&&&&&&.##.XX              ",
"            XX.###&&&&.<<.&&&&&&&&&&....X&&&.###.X              ",
"           XX.####&&..<<<.&&&&&&&&...<<<<.&&&.###.X             ",
"           X.####&&&.<<<<<.........<<<<<<.&&&.###.X             ",
"          XX.###.&&.<<<<<<<<<<<<<<<<<<<<<.&&&.###XXX            ",
"          X.####.&&.<<<<<<<<<<<<<<<<<<<<<.&&&.####.X            ",
"          X.###.&&.<oooo<<<<<<<<<<<<oooo<<.&&&X###.X            ",
"         XX.###.&&.<<<<<<<<<<<<<<<<<<<<<<<.&&&.###.X            ",
"         X.####.&X<<<<<<<<<<<<<<<<<<<<<<<<..&&.###.X            ",
"         X.####.&.<<.....<<<<<<<<<<.....<<<.&&.###.X            ",
"         X.###.&.<.........<<<<<<.........<.&&&.##.X            ",
"         X.###.&.<.++++++3.<<<<<<.++++++3.<<.&&.##.X            ",
"         X.####.<<.----33-..<<<<<.----33-..<.&&.##.XX           ",
"         X.####.<..-3-.33-3..<<<..-3-.33-..<<..####.X           ",
"         X.####...3111..113<<<<<<3111..113..<<<.###.X           ",
"         X.####.#.331111133<<<<<<331111113.<<<<.###.X           ",
"         X.#####.<*3111113<<<<<<<<3111111**<<<<.###.X           ",
"         X.#####.<*>311133<<<**<<<3311133*<<<<..###.X           ",
"         X.#####.<<**...**<<<<<<<<**...***<...@@###.X           ",
"         X.#####.<<<*****<<<<,,<<<<******<<.@@@@###.X           ",
"         X.######.<<<<<<<<<%%%%%%<<<<<<<<<<.@@@@###.XX          ",
"         X..#####...<<<<<<<<,,,,<<<<<<<<<..@@@@#####.X          ",
"         XX.#####.@@.<<<<<<<<<<<<<<<<<<<.@@@@@@#####.X          ",
"          X.######@@@..<<<<<<<<<<<<<<<..@@@@@@@#####.X          ",
"          XX.#####@@@@@...............@@@@@@@@@#####.X          ",
"           X.####@@@@@@@@@@@.<<:.@@@@@@@@@@@@@@#####.X          ",
"           XX.###@@@@@@@.....<<:.......@@@@@@@@#####.X          ",
"            X..##@@@@@..2222.<<:.22222..@@@@@@@#####.X          ",
"            XX.##@@@@..2..22.....2..222.@@@@@@@####..X          ",
"             XX.#@@@@.22.222.22.2222.22.@@@@@@@####.XX          ",
"              X..@@@@.2.222...2..2222...@@@@@@@####.X           ",
"              XX..@@@...2222.22.22222..@@@@@@@####.X            ",
"               XX..@@@.222222222222222.@@@@@@@####.X            ",
"                X..@@..22222$22$222222.@@@@@@@###..X            ",
"                XX.@@.222.22$2$222.;22.@@@@@@@###.X             ",
"                 X..@.22;.22$$2222.;22.@@@@@@###..X             ",
"                 XX...22;.;2$2$22;.;;2.@@@@@@###.X              ",
"                  XXX.22;.;2$22$2;.;;;.@@@@@@###.X              ",
"                    X.2;;.;222222;.;;;..@@@@###.X               ",
"                    X....................@@@@##.X               ",
"                    X.<<.OOOO======.<<.X..@@@##.X               ",
"                    X.<..OOO========..X XX..@@@.X               ",
"                     ..OOOO==========.X   XX..X.X               ",
"                     X.OOO===========.X    XXXXXX               ",
"                     X.OOO===========.X                         ",
"                     X.OOO===========.X                         ",
"                     XX...............X                         ",
"                      XX.*<<.XX.*<<.XXX                         ",
"                      XX.*<<.XX.*<<.XX                          ",
"                      XX.*<<.XX.*<<.XX                          ",
"                      XX.*<<.XX.***.XX                          ",
"                       X.*<<.XX.***.X                           ",
"                       X.....XX.....X                           ",
"                       X.333.XX.333.X                           ",
"                       X.....XX.....X                           "
};
