/* XPM */
static char *_adc456499004fe3c8f1e544bd3eaecemKTxZv4CnrvRTDcY[] = {
/* columns rows colors chars-per-pixel */
"64 64 231 2 ",
"   c #080706",
".  c #090807",
"X  c #0C0B0A",
"o  c #070606",
"O  c #130E0D",
"+  c #1C0F0E",
"@  c #141213",
"#  c #1A1515",
"$  c #191719",
"%  c #1C1A1C",
"&  c #1B1817",
"*  c #18100F",
"=  c #241C1B",
"-  c #2B1E1A",
";  c #281715",
":  c #3A1918",
">  c #2E211C",
",  c #22261F",
"<  c #32231D",
"1  c #3E201D",
"2  c #1E1D21",
"3  c #211E22",
"4  c #222126",
"5  c #24252B",
"6  c #2C292D",
"7  c #292727",
"8  c #342621",
"9  c #392621",
"0  c #3B2A24",
"q  c #382B28",
"w  c #2C3229",
"e  c #2A2C32",
"r  c #272930",
"t  c #322F32",
"y  c #2E3133",
"u  c #373935",
"i  c #3A312B",
"p  c #1F221C",
"a  c #451A1B",
"s  c #4A1D1D",
"d  c #4C2222",
"f  c #412C26",
"g  c #432F29",
"h  c #4B2A27",
"j  c #45312B",
"k  c #4B332D",
"l  c #4C3631",
"z  c #4C3A33",
"x  c #433837",
"c  c #543A34",
"v  c #5A3F38",
"b  c #553A35",
"n  c #52332E",
"m  c #44201E",
"M  c #394235",
"N  c #45493A",
"B  c #5D423B",
"V  c #53453B",
"C  c #4C5B3D",
"Z  c #515C3F",
"A  c #61453E",
"S  c #61493F",
"D  c #463E41",
"F  c #3F4543",
"G  c #5B4843",
"H  c #4C5A45",
"J  c #5B5A47",
"K  c #494F48",
"L  c #654B43",
"P  c #694D45",
"I  c #674B45",
"U  c #6D534A",
"Y  c #655448",
"T  c #73554B",
"R  c #73594F",
"E  c #75564B",
"W  c #665752",
"Q  c #745C52",
"!  c #7B5E53",
"~  c #755E5A",
"^  c #566448",
"/  c #586755",
"(  c #7C6056",
")  c #7C635A",
"_  c #67755B",
"`  c #72785D",
"'  c #6A6954",
"]  c #767A63",
"[  c #766D65",
"{  c #836255",
"}  c #84655A",
"|  c #8A6A5C",
" . c #88685A",
".. c #916D5E",
"X. c #8A6D63",
"o. c #916E60",
"O. c #8A7369",
"+. c #957163",
"@. c #9B7564",
"#. c #9C796B",
"$. c #9A7768",
"%. c #987B75",
"&. c #8C7676",
"*. c #A37C6A",
"=. c #A87F6C",
"-. c #A17A67",
";. c #A27F75",
":. c #845F53",
">. c #648258",
",. c #79876A",
"<. c #78956D",
"1. c #7E8B71",
"2. c #7D9873",
"3. c #6E8266",
"4. c #75A46B",
"5. c #79A56D",
"6. c #7DA973",
"7. c #7BA672",
"8. c #848668",
"9. c #828C73",
"0. c #818773",
"q. c #9D807A",
"w. c #89987A",
"e. c #8D9875",
"r. c #AC826E",
"t. c #A6806D",
"y. c #AC8472",
"u. c #A5837C",
"i. c #AB857B",
"p. c #AC887B",
"a. c #B18671",
"s. c #B58A74",
"d. c #B98D77",
"f. c #B48B7B",
"g. c #BA8F79",
"h. c #BD927B",
"j. c #82AC76",
"k. c #85A47C",
"l. c #84AE7A",
"z. c #89AE7D",
"x. c #89AF77",
"c. c #86B07E",
"v. c #8AB17E",
"b. c #90B37F",
"n. c #C1967E",
"m. c #C2987F",
"M. c #9E8787",
"N. c #8E9581",
"B. c #929785",
"V. c #A48581",
"C. c #AC8B84",
"Z. c #AD8D89",
"A. c #A78882",
"S. c #B38E83",
"D. c #B18F8B",
"F. c #A9958D",
"G. c #BC9482",
"H. c #B3918C",
"J. c #B89489",
"K. c #B59693",
"L. c #BB9B95",
"P. c #BC9D9B",
"I. c #B79995",
"U. c #AB9793",
"Y. c #8BAB83",
"T. c #97A888",
"R. c #8DB384",
"E. c #8FB689",
"W. c #87B181",
"Q. c #92B585",
"!. c #92B68A",
"~. c #94B98E",
"^. c #9ABA8C",
"/. c #99B48B",
"(. c #96BA90",
"). c #9CBD93",
"_. c #9EBE95",
"`. c #9DBE95",
"'. c #9BBC92",
"]. c #9AB490",
"[. c #9DA592",
"{. c #A7AC97",
"}. c #BBA09D",
"|. c #A0BF96",
" X c #A1BE94",
".X c #A4B997",
"XX c #A0BD8F",
"oX c #BEA4A3",
"OX c #B3B9A3",
"+X c #C39B83",
"@X c #C39E8A",
"#X c #C09781",
"$X c #C19E93",
"%X c #C2A29D",
"&X c #C2A097",
"*X c #C2A5A4",
"=X c #C5A9A6",
"-X c #C5ABAB",
";X c #C9ADAD",
":X c #C3A7A9",
">X c #CAAEB0",
",X c #CCB2B4",
"<X c #CFB6B9",
"1X c #CCB6B9",
"2X c #D0B7BB",
"3X c #D1B9BD",
"4X c #9EC096",
"5X c #A2C096",
"6X c #A5C29B",
"7X c #ABC69F",
"8X c #ACC69F",
"9X c #AEC69E",
"0X c #AAC59E",
"qX c #AFC7A0",
"wX c #ADC7A0",
"eX c #ADC6A0",
"rX c #AFC8A1",
"tX c #B1C8A1",
"yX c #B0C8A2",
"uX c #B4C8A9",
"iX c #BDD0B3",
"pX c #C0D3B7",
"aX c #D4BDC2",
"sX c #DAC5CD",
"dX c #D6C1C7",
"fX c #DECBD4",
"gX c #DFCFD8",
"hX c #DFD0D9",
"jX c #E0CED9",
"kX c #E3D1DC",
"lX c #E6D7E3",
/* pixels */
"_._._._._._.`.R.R.|._._.z.z.j.z.l.v.4X5X5X5X5X6X6X6X.XT.<._ V f 1 < < > 0 ^ e.5XwXwXwXwXwXwXwX0XwXeXeXeXqXtXtXtXtXtXtXtXtX9Xb.Q.",
"_._._._._._.`.W.^.|._.|.~.j.~.5X5XR.R.6X5X6X6X5XY.` J z j < < < < < > > > > 0 ' T.eXwX6X6XeX7XwX0XeX9XeXqXqXtXtXtXtXtXqXqX^.^.XX",
")._._._._._._.W.!.|._. X_._.5X|.5X'.c.5X6X|.N.J i < < < 0 < 0 < < < < < - > > 0 V ,..XeXeXeX6XwX9XeXeX9XrXqXqXtXtXtXtXqXXX5X5X5X",
").).)._._._._.R.R.|.|.`._.4X|.|.5X~.v.6X5X,.i > < < < > < 0 < < < > < > = - > > 8 9 J Y.6XwXwXwXwX9XeXeX9XqXqXqXtXtXtX XXXtX5XXX",
").).`.`.).`.`.`.l.^.|.`._._.|.|.5Xv.~.6X9.0 ; < g f < 1 < < < < < > > > - - - > < 0 i V T.7X7X7X7X7X9XeX9XeXeXqX9X9X9Xb.9XtX5Xb.",
").).).).).`.`.`.Q.l.`._._._.|.|.R.v.5Xw.N > - - < < g 0 < 0 1 < > - > < < > > 8 8 q k c W ].7XwXwX7X7XeX9XeXeXeXtX9XXX9XtX9Xb.9X",
").).).).`.).`.).`.R.l.`.5X`.~.z.v.4XQ.V ; : ; - > < j j j < < < < > > > < > > 8 i j l A L ` .X9X7XwX7XwX7X9X9XeX9Xb.5XtX9XXX9XtX",
").).).).).`.`.`.`.`.Q.l.v.l.z.!.4X5X` > ; < < - < < 1 f z k g j g 0 0 8 0 0 j z c c B P P T e.9X7X7X7X9XeXeXeXeXXX5XtX9XXX5XtXtX",
"'.).).).).).).`.`.`._.~.Q.^._.4X4XQ.N ; - < < 0 f k f g b b c n c c c k l B I L z z I R P L [ 6X7X7X9X7X9X9X9X5XXX9XtX5XXXtXtXtX",
"'.).).'.).).).).`.`.`._._.`._._.5X9.9 - < - < 9 g h k c b A A v B S U P I P ( ( G k V G G L Q /.7X7X7X9X9X9X5XQ.9X9X5Xb.9XtX9XXX",
"4X'.4X'.).).).).'.`.`.`._._._._.4X' < < 0 k f f k b L U P E T T ' ( ( U R ! X.X.X.} } ~ L B P T.wX7X0X7X9X6XQ.9X9X5Xb.9XtXXXb.b.",
"'.'.'.'.).'.).'.`.^.'.`._._._._.'.Y 0 < 0 n S E E ! ..+.=.s.*... .} | |  .X.+.#.%.Z.I.P.q.U B w.7X7X7X9X9X5XQ.9X9X^.9XtX5X^.^.5X",
"'.'.'.'.'.'.'.4X).).).)._._._._.^.J f 0 j A | t.*.r.d.h.+X@X@Xn.r.y.y.y.y.i.i.u.V.C.L.>X>XX.c w.wX0X0X0X0X0X^.5X^.XX9X9XXX^.XXtX",
"(.'.'.'.'.'.'.'.).).).).'.).)._.^.Y f 0 k S +.s.g.n.m.+X@X@X@Xm.g.h.G.g.f.f.S.D.Z.H.P.>XaXZ.A w.wX0X0X0X0X9X6XQ.b.5X9X9X^.^.5XtX",
"6.(.'.'.'.'.).'.).).).).).).).).^.J f k c E @.s.n.m.+X@X@X@X+X@Xh.h.G.G.g.S.S.J.D.K.P.:XaXoX~ B.wX0X0X0X0X9X9X6X5X^.9X9Xb.^.5X9X",
"W.6.(.'.'.'.'.).).).).).'.).).4X4X' h c A | a.g.h.m.m.@X@X@X+X#XG.h.h.G.G.S.S.S.J.L.*X;XaX,XO.N.6X0XwX0X0X0X0X9X9XQ.9X9XXX^.5X9X",
"E.6.E.`.^.'.'.'.'.'.4X!.l.l.'.`.4X,.j V T @.d.h.g.n.h.#X#X#X@X#X#X#XG.#X@XJ.L.P.%XoX-X>X>X2XV.w.wX6XwX6X0X0X0X0XwX~.6X9X^.^.XX9X",
"6.W.c.'.'.'.'.'.'.'.).c.c.j.!.`.4X1.1 c ! a.h.d.d.=.@.-.#.*.*.;.f.f.S.J.J.K.L.$XI.K.U.K.K.K.K.T.6XwX6XwX0X7X7X0X7X X^.9X`.^.Q.Q.",
"(.~.6.E.'.'.'.'.'.'.'.!.l.c.'.'.4X1.i B +.d.h.a.@. . .{ R I L T  .$.i.D.D.H.D.A.O.} ) X.%.u.V.T.6X6XwX6X7X7X0X7X0X X^.9X5X^.Q.b.",
"'.(.!.6.!.'.(.^.'.(.'.4X'.'.'.`.4X9.g B -.d.s.@.| ..$.$.#.+.{ R Q { #.;.S.H.D.;.O.X.q.K.;X,XP.T.wXwX6XwX6X0X0X0X0X0X/.0X0X^.^.^.",
"!.'.4XR.6.~.4X(.'.'.(.'.'.'.^.v.x.8.n S -.d.s.@.@.*.-.*.;.*.@.| }  .+.;.C.L.*XK.V.%.D.>XsXjXaX{.4XE.!._.6X0X7X7X0X9X^.5X9X5X^.Q.",
"6.W.~.'.c.c.'.'.(.4X'.'.'.`.R.c.Q.>.c S r.h.s.t.@.+... .T A U ( o.-.y.f.G.;XaXK.! G ) K.-XsXsX{.R.4X_.R.^.0X6X7X0X9X^.^.5X^.b.b.",
"~.E.(.(.~.6.~.'.'.(.'.(.'.4XE.7.8.@.E S r.n.n.s.-...! T z k E E @.g.g.n.#X*X<X%.Q b %.aXD.aXjX{.4XwX6X6X!.^.0X7X0X0X6X^.^.^.5X5X",
"(.^.'.'.~.c.R.(.'.(.'.'.'.^.4X2.E :.@.:.a.g.n.n.d.=.@.-.+. ...@.s.+Xn.g.G.$X-XK.%.%.Z.,X,X,XaXOX5X6X6XwX6XQ.].7X0X0X0X0X0X9X9X9X",
"(.'.(.'.^.R.c.(.(.4X(.'.'.'.'.e.:.-.s.| r.n.n.n.n.n.s.s.s.a.=.a.n.n.n.n.g.J.;X*XK.D.$X2XaX-X;X-X6X6X6X6XeX|.Q._.0X0X7X0X0X7X0X0X",
"~.(.(.(.'.E.6.4X(.(.'.(.'.'.(.2.+.a.r.| =.s.n.n.n.n.n.n.m.n.n.n.n.n.n.g.d.f.*X>X*XP.I.P.-X-X-X:X.X6X6XeX6X0X|.R.5X6X0X0X7X0X0X7X",
"~.(.(.'.~.!.6.4X'.~.~.'.'.'.~.5.$.a.| :.=.a.s.n.m.m.n.m.m.m.n.n.n.h.d.d.d.f.L.>X,X$XZ.H.*X:X>X-X.XwX6X6X6XeX6X_.Q.6X0X7X0X0X0X0X",
"'.~.(.~.4XE.j.~.!.c.6.6.l.Q.!.5.8.a. .! =.r.a.n.m.m.m.m.m.m.n.n.s.a.a.a.g.f.L.>X;X$XK.L.*X;X2X3XOXwX6X6X6X6XeX6X^.~.6X0X7X0X0X7X",
"E.~.(.(.(.W.c.!.6.R.~.~.R.c.6.4.o.a.-.E -.r.a.n.m.m.m.m.+X+Xn.a.=.r.a.a.d.S.2XjX>XD.$X*XoXaXaXsXeXwX4XwX6X6XwXwX6X!._.6X6X0X0X7X",
"l.~.~.(.(.j.R.c.W.'.(.'.'.~.!.6.>.t.d.:.@.a.a.d.s.n.n.n.+Xm.n.=.-.*.+.{ @.i.:XP.-X%.H.-XaXsXhXhXuX4X6X6X6X7X6X6X7X^.].eX0X0X0X0X",
"c.~.~.~.W.6.E.6.~.~.'.(.~.~.'.(.6.8.r.S :.a.n.a.n.n.n.n.m.m.n.=.=.-.:.! o.D.oXD.I.%.V.oXaXgXlXhXOX6X6X6X6X6X7X6X6X^.^.6X6X0X0X0X",
"E.~.(.E.6.7.6.v.'.'.(.'.'.'.(.'.4Xj.8.S S r.a.n.n.s.n.n.m.m.a.a.s.a.*.*.;.A.D.K.P.K.C.}.aXfXlXfX.XwX_.!.|.6X6X6X6X!._.7X6X0X6X7X",
"(.(.W.6.E.E.4.E.(.(.'.(.(.(.(.).~.!.j.` A @.a.s.d.d.s.n.n.g.s.s.a.*.*.*.;.;.C.D.P.-X:X:X2XjXlXdX.X6X6XQ.z.~.'..X!.!.6XwX6X6XeX6X",
"6.6.6.E.(.'.W.6.~.(.(.(.'.'.(.].4X4Xx.<.S | -.a.a.s.d.g.n.s.t.*.*.*.=.;.C.i.K.-X>X;X>X>XaXfXkX1X].6X6X`.Y.^.Q.Q.^.6X6X6XeX6X6XeX",
"W.E.~.~.E.(.(.6.R.(.(.(.(.(.(.(.~.4Xv.2.S ..*.a.a.s.s.d.g.a.@.| @.-.@.-.;.i.K.*X-XZ.I.2XsXjXjX-X.X6X6X!.Q.6X6X6X6X0X6X0X6X6X6XwX",
"E.E.(.E.W.(.(.R.6.~.(.(.(.(.(.(.'.~.l.j.S :.-.r.s.s.s.n.n.*.{ :. . .o.+.+.*.C.$XK.%.V.<XjXjXfXU.k.^.!.R.|.6X6X6X6X6X6X6XeX6XeX6X",
"7.6.E.W.6.(.(.(.6.R.(.(.(.(.j.l.W.c.j.~.Y U @.a.a.n.n.n.n.*.-.g.s.n.=.=.=.S.%XaXaX>XP.2XjXjXaX[.^.Q.!._.6X6X6X6X6X6XeX6X6XwX6X6X",
"6.6.6.4.E.~.(.(.W.c.(.(.(.(.l.6.c.W.~.'.' S  .t.a.s.a.n.n.g.n.n.#X+X#X=.;.J.$X2XdXaX3XaXjXjX;XT.5X6X6X6X6X5X^.!.6X6X6X6X6X6X4XwX",
"E.E.E.6.E.~.(.(.E.6.(.~.(.(.W.l.].).^.2.V n :.@.=.a.a.n.n.n.+Xm.#Xn.f.f.;.S.$X>X2XsXsXfXjXaXI.'.6X5X5X6X6X_.Y.z.'.6X6X6X6X6XwX_.",
"E.(.(.6.c.(.(.(.E.6.E.E.!.!.6.E.'.Q._ j n n A :.-.=.a.s.n.m.+X@X+Xn.#Xn.f.;.J.-X2XsXsXsXsX;X[.5X5X5X6X6X'.W.^.`.E.6X6X6X6XwX6XwX",
"7.E.(.W.6.(.(.(.~.6.W.4.6.6.W.~.!.' : - L S n P  .@.t.a.s.d.m.+X+Xn.n.=.;.S.J.*X,XaXaX<X>X&.9.^.|.|.'.R.Y.(.wX_.Y._.6X6X6XeX6X6X",
"c.6.W.W.6.(.~.(.~.6.6.c.~.~.(.(.` : ; -  .@.v b P  .+.-.*.r.s.g.n.n.d.n.f.S.J.P.<X2X*X*XZ.G y / k.R.7.W.4X6X6X_.~.~.6X6X6X6X6X6X",
"~.c.4.6.4.~.~.~.~.4.6.E.(.~.(.k.n : * k =.a.:.n k S E  .| ..+.-.=.=.=.f.C.S.K.P.aX:XV.u.~ q 3 5 N k./.W.(.6X_.wX`.R.6X6X_.wX6XeX",
"E.W.6.W.7.E.~.~.E.6.~.(.(.E.3.N s ; # :.a.d.r.E g g B S S S U :.@.*.=.;.;.u.Z.oX*XC.X.E I b 3 3 % y K _ <.].wX4X|.Y.5X6XwX4XwX4X",
"(.W.6.(.6.E.E.(.W.6.4XE.,.V a a s + ; -.d.n.a.-.E j g k c c b B P :.X.@.+.;.V.K.Z.} I l v I h 3 = % 2 % 2 u 3.]._.E.4X6X_.wX6X6X",
"E.E.6.E.6.E.(.E.5.c.E.` 1 a a s a * 8 r.n.n.n.n.*.:.B h f g k k n A T R T ~ } } ~ I x 6 f B A 3 = % % % $ 2 2 u _ k.`.6X6X_.6X6X",
"(.E.7.W.6.E.E.6.5.6.` m a a a s a O < =.n.n.n.n.g.r...S l g i g h b b v v b v R V.X.5 3 3 h I l - = % 2 2 $ 2 2 2 F T.6X6X_.6X6X",
"(.E.l.7.4.6.7.W.!.^ a a a a a s a O ; :.n.n.n.n.n.d.r.@...! L b b v v v I ! V.>XaXM.r 2 3 < b I j - , $ 2 2 2 2 2 5 / _.6XwX_.6X",
"E.~.E.W.6.W.E.W._ , a a a a a s s * @ z f.+X#Xm.m.m.g.a.y.y.+.X.{ ! } O.A.:XaXsXaXU.t 3 % % < A A 8 - % 2 2 2 2 5 5 F `..X6X4X6X",
"~.~.E.E.~.~.3.w X . ; a a a a a s + @ = { m.m.m.h.m.m.h.h.G.S.Z.A.V.V.D.-X3XaXsXfXM.6 3 % $ = 0 A l - 8 $ 3 2 3 r 5 F `.eX6X6X6X",
"E.(.E.(.W./ @ . . . @ a a a a s d ; O $ 0 r.+Xm.n.m.m.m.G.@X@X&XP.I.I.*X;X2XaXsXaX&.7 5 3 $ , - j v 0 0 3 2 3 5 r r / _.6X6X6X6X",
"(.E.E.W.F X . . . . . ; a a a a d - X $ = B h.+Xm.m.m.m.+X@X}.=X:X:X*X;X;X2XaXaXaXI e 5 2 % $ 0 j n b g q 2 3 5 r e 1..X6X4X6X6X",
"E.(.W.u . . . . . . o + a a a a d f X # % = ! m.m.#Xm.+XL.&X=X>X,X>X>X,X>X3XaXjXoXl t 5 4 2 @ % j L G b g = 3 5 e u Y.6X`.6X6X6X",
"E.W.K X . . . . . .   O : a a a s h O * % & 8 X.+X+X+X+X@X&X=X,X2X2X2X2X2XaXsXfX&.x t r 5 5 2 @ # 3 G ! I 6 3 6 e K ].6X6X_.6X6X",
"E./ o o . . . . . X .   + a a a s d ; X $ = $ 9 | h.@X@X@X&X=X,X,X2X2X2X2XaXsX-XW b y e r 5 5 $ @ @ % t ~ W 6 q F w.6X_._.6X_.6X",
"k.4 o o . . X . . X X .   : a a s h < . # % $ % 8 ( h.@XL.@X%X;X,X2X2X2X2XaX,X&.I D y e r 5 r 2 @ @ $ 2 6 ~ x t 1.`._._.6X_._.6X",
"_ @     . . . . . X X X X + s s s s h O O % = % % = G u.$X$X%X=X,X,X2X2X>X*X;.) G u y r e e r 5 $ @ $ 2 3 u t _ `.4X|.|.|.5X5X6X",
"p       . . . X . . O X @ X : s s d h + X $ % % = $ % i Q q.I.*X;X,X,X;XH.*...R u y y r e e r 5 $ $ $ 2 r 3 K /.`.6X|.|..X6X`.5X",
"w o o   . . . X X . O X O X ; s s s h - . @ 2 3 % % 2 % 2 7 K W [ &.%.O.! ~ G y e r 6 5 e e r 5 2 $ % % 6 / R.^.(.E.E.E.].`.4X6X",
"7.M w X o . . X X . O O @ * + s s s d 9 . O % 2 3 3 2 2 2 4 5 5 r 6 u u u M u u M w u u u M u y w 6 M H 2.T.v.5.6.R.E.!.c.6.W.).",
"6.5.4._ H 5 @ . . . X @ O @ O : d s d h X X $ 2 4 3 2 2 2 4 r e y N H H J J Z Z H N ^ C Z ^ Z Z _ 5.x.z.x.5.5.j.5.j.Q.5X5Xl.v.z.",
"E.E.E.E.E.W.3.H , X X X X @ @ : s s s h = X @ % 4 3 2 2 2 2 5 r M J 9.0.3.,.^ ] 0.] B._ ^ B.w.{.Q.6X6Xj.5.j.b.qXb.j.j.c.(.R.Q.'.",
"E.E.E.E.~.(.(.E.W._ u % X = $ ; m d s h x O O $ 2 2 % 2 2 2 , 5 N / 1.1.[.w._ 1.` N.{.,.,.9X9XiXtXiX6X4.b.b.tX6Xx.x.v.Q.c.v.R.6X",
"~.~.E.~.E.~.E.~.E.~.Y.<.J z = ; a s s d G # X @ $ 2 % 2 2 2 5 w N ^ N.N.w.B.` 1.N.[.{..XQ.tXb.9XiXiXQ.j.5XpX.X5.4.5.7.j.l.4.W.]."
};
