/* XPM */
static char *_ee1884ce5044e16afa2abe9a87365edaurakG5u1kBD7kwx[] = {
/* columns rows colors chars-per-pixel */
"64 64 11 1 ",
"  c None",
". c #263238",
"X c #37474F",
"o c #455A64",
"O c #546E7A",
"+ c #607D8B",
"@ c #78909C",
"# c #90A4AE",
"$ c #B0BEC5",
"% c #ECEFF1",
"& c gray98",
/* pixels */
"....@@@@@@@$$$$$$$$$$$$$$$$$$$$$$$$$$$$$$$$$$$$$$$$ooXXXXooo....",
"...@@@@@%$$$$$$$$$....%%%%%%%%%%%%%...XXXXXXX%%%$$$$%XXXXXXo....",
"..@@@@$$$$$$.....%%%%%%%%%%%%%%%%%%%%%%.@@@@@OOXX%$$$$%XXXXX%o..",
".@@@@$$$$$.....%%%%%%%%@@@################# $$$@@@@$$$.%%XXXXX%%",
".@@@$$$$...XXO%%%%.  ###......................#$$$$$$$$..OXXXXX%",
"@@@%$$$..XXX%%%%.###............................##$$$$$$.XOOXXX%",
"@@%$$$.XX@O.%%%##........XXXXXXXXXXXXXXXXXXX......##$$$$..XOOXXX",
"@@%$$$XX@O.%%%#......XXXXXXXXXXXXooooXXXXXXXXXX.....#$$$$..XOOXX",
"@@%$$Xo@O..%#......XXXXooooooooooooooooooXXXXX.%%.....#$$$.XXOXX",
"%%.$$ooO..%#.....XXXXXooooo@@@@@@@@@@@ooooooXXX.%%%....#$$.XXXOO",
"%%X$$oO........XXXXXooo@@@@@@@@$$$$$@@@@@ooooXXX.%%%....#$$.XXXO",
"%XX$$oO......XXXXXooo#@@@@OOOOOOOOOOOOOO@@@ooooXX.%%%....$$.@XXX",
"%XX$$O......XXXXXo##@@OOOOOOOOOOOOOOOOOOOO#@@oooXX.%%%....$$$@XX",
"%XX$$......XXXXXo##@@@OOOOO    $$$+++++++++O#ooooX..%% ...#$$@XX",
"%Xo$$....XXXXXXo##@@OOOO   $+++++++++++++++++##oooX.%%% ...$$$XX",
"%$o$$...#XXXXX###@@OOOO $+++++ooooooooooo+++++$#oooX.%% ...$$$XX",
"%oo$...#XXXXXo## OOOO $+++oooooo..........oo+++$#ooo.%%% ...$$XX",
"%oo$...#XXXXX##@OOOO$++++ooo................o+++$##oo.%% #..$$XX",
"%oo... XXXXXo# OOO $+++ooo........@@@@@@......o++$$@o.%%% ...$$X",
"%oo...XXXXXXo OOO $+++ooo....@@@@@@@@@XX@@.....o++$#@.%%%X#...$X",
"%o$...XXXXXo#OOO $+++oooo...@@XXXXXXXXXXXXXX....+++$@o.%%X#...$X",
"%o$..XXX%XXoOOO@$+++ooo@...@XXXXXXXXXXXXXXXXX....++ $@.%%XX#...X",
"%o$..XX#%XXoOO@ $+++oo@@..XXXXXX..........$XXX...+++ @.%%%X#...X",
"%O$..XX#%XXoOO@$+++oooX...XXX....##### ...$$$XX...++++@.%%X##..X",
"%O$..XX%%XooO@@+++ ooXX..X....##########...$$$XX..@++++.%%X##...",
"%@$..X##%XooO@$+++@oXXX.....##$$@@@$$#####..$$$X...@+++.%%XX#...",
"%@$..X##%XooO@$++ @oXXX....##$@@@@@@@$$####.$$$X...@@++.%%XX##..",
"%@$..X##%Xoo@@+++@oXX@@...##$@@%%%%%%%%$####.$$$X..@@+++%%oX##..",
"%@$...###%oo@@++ @oXX@@...#$@%%%%%%%%%%%$###..$$X..O@+++%%$XX#..",
"%@$...###%ooo@++ @oXX@@...#@@%%%OOO @@%%%$## .$$$..o@@++%%$XX#..",
"%@$... ##%Ooo@++ @oXX@@....@@%%OOO$$$@@%###@@@.$$..XO@++%%#XX#..",
"%@$... ###%oo@+++@@oX@@....@@%%@%%$$$$@%###@@@.$$..XO@++%%#XX#..",
"%@$... $##%ooo$++@@oXXX.....@%%%%%.X$$$%####@@@.$..XX@+++%#XX#..",
"%@$....$##%%oo$++ @oXXXX.....O%%...XX$$%%###@@@.$..XXO@++%#$X#..",
"%@$X...$###%ooo+++@@ooXX...........XX$$$%####@@.$..XXX@++%#$X#..",
"@@$X...$###%Ooo+++ @ooXX...........XXX$$%####@@.$..XXX@++%#$X#..",
".@$X....$##%%oo$+++@@oooooo........OXX$$%####@@....oXX@++.#$XX..",
".@@oo...$##%%%oo$+++@@@oooo...@@...OXX$$%####@@.... XX@++@#$XX..",
".@@oo...$###%%%%o++++@@@@@@ @@@@oooOXX$$%####@@....OXX@%%@#$XX..",
".@@ooo...###%%%%%$++++ @@@@@@@@oooOOXX$$%###@@@....OXX@%%@#XXX..",
".@@$oo ...## X%%%%$$+++++o@@@oooooOXX$$$%###@@....oOXX@%.@#XXo..",
".@@@ooo...### XXX%%$$++++++ooooooOOX$$$$####@@@...oOXX@%.@#XXo..",
".@@@oooo...##  XXXX%$$$+++++++++OO$$$$$%####@@...ooOXX@%.@#XXo..",
".%@@@ooo ...## @XXXXO$$$$$++++++$$$$$$%#####$....oOOXX%%.@XXXo..",
"..@@@$ooo....##@@XXXXX$$$$$$$$$$$$$%%%######....ooOOXX%.@#XXoo..",
"..%@@@oooo.....##@@XXXXXXX$$$$$$%%%% ###### ...oooOOXX%.@XXXoo..",
"..%@@@@oooo.....###@@XXXXXXXXXXX@@@ ######.....ooOO@XX%.@XX oo..",
"...%@@@@ooooo.....###@@@@@@@@@@@@#######......oooOO@XX..XXX oo..",
"O..%%@@@@@ooooo......###@@@@@@@#######......@oooOO@XXX..XX#oo...",
"O...%%@@@@@@ooooo........#     #...........ooooOOO@XX..XXX#oo...",
"XO...%%@@@@@@$oooooo......................oooooOO@XXX..XX#ooo..#",
"Xo....%%%%@@@@@$$ooooooo.........    ..ooooooOOO@XXXX.XXX#oo...X",
"XXo...O%%%%@@@@@@$$$ oooooooooooooooooooooooOOO@XXXX..&&##oo&&.X",
"XXoo...OOOO%%@@@@@$$$$$$$ ooooooooooooooo@OOOO@@XXX..X&&#oo&&&XX",
"XXXoo....@OOOO%@@@@@$$$$$$$$$$$$$$$$$$$@@OOOO@@XXX...X&&oo&&&.X$",
"XXXXXX....O OOOO@@@@@@@@$$$$$$$$$$$$$$@@OOOO@@XXXX..X@&&o&&&.XX$",
".XXXXXX....OOOOOOOO@@@@@@@@@@@@@@@@@@@@OOOO%XXXXX..X@o&&o&&..X$$",
"....XXXX....XOOOOOOOOO@@@@@@@@@@@@@@@@OOOOOXXXX....@oo&&&&..X$$$",
"XX.....XX.....XXXOOOOOOOOOOOOOOOOOOOOOOOOXXXXX....oooo&&&&&XX$$X",
"XXXX......o.....XXXXOOOOOOOOOOOOOOOOOOXXXXXXX...ooo...&&.&&&#$$X",
"..XXXX..............XXXXXXXXXXXXXXXXXXXXXXXX...o......&&XX&&&$$X",
"..XXXXXXX...................XXXXXXXXXXX XXX..........#&&XXX&&&..",
".....XXXXXXXXXX...................................XXXX&&X#..&&..",
".....XXXXXXXXXX...............................XXXXXXXXXX##......"
};
