/* XPM */
static char *_a5bc4eca3ad43b7c226959890061817kljhC0BTY2KQk3cR[] = {
/* columns rows colors chars-per-pixel */
"64 64 10 1 ",
"  c black",
". c #004D40",
"X c #37474F",
"o c #455A64",
"O c #4DB6AC",
"+ c gray62",
"@ c #90A4AE",
"# c #B0BEC5",
"$ c #80CBC4",
"% c #CFD8DC",
/* pixels */
"XXXXXXXXXXXXXXXXXXXXXXXXXXXXXXXXXXXXXXXXXXXXXXXXXXXXXXXXXXXXXXXX",
"XXXXXXXXXXXXXXXXXXXXXXXXXXXXXXXXXXXXXXXXXXXXXXXXXXXXXXXXXXXXXXXX",
"XXXXXXXXXXXXXXXXXXXXXXXXXXXXXXXXXXXXXXXXXXXXXXXXXXXXXXXXXXXXXXXX",
"XXXXXXXXXXXXXXXXXXXXXXXXXXXXXXXXXXXXXXXXXXXXXXXXXXXXXXXXXXXXXXXX",
"XXXXXXXXXXXXXXXXXXXXXXXXXXXXXXXXXXXXXXXXXXXXXXXXXXXXXXXXXXXXXXXX",
"XXXXXXXXXXXXXXXXXXXXXXXXXXXXXXXXXXXXXXXXXXXXXXXXXXXXXXXXXXXXXXXX",
"XXXXXXXXXXXXXXXXXXXXXXXXXXXXXXXXXXXXXXXXXXXXXXXXXXXXXXXXXXXXXXXX",
"XXXXXXXXXXXXXXXXXXXXXXXXXXXXXXXXXXXXXXXXXXXXXXXXXXXXXXXXXXXXXXXX",
"XXXXXXXXXXXXXXXXXXXXXXXXXXXXXXXXXXXXXXXXXXXXXXXXXXXXXXXXXXXXXXXX",
"XXXXXXXXXXXXXXXXXXXXXXXXXXXXXXXXXXXXXXXXXXXXXXXXXXXXXXXXXXXXXXXX",
"XXXXXXXXXXXXXXXXXXXXXXXXXXXXXXXXXXXXXXXXXXXXXXXXXXXXXXXXXXXXXXXX",
"XXXXXXXXXXXXXXXXXXXXXXXXXXXXXXXXXXXXXXXXXXXXXXXXXXXXXXXXXXXXXXXX",
"XXX                              XXXXXXXXXXXXXXXXXXXXXXXXXXXXXXX",
"XXX ############################ XXXXXXXXXXXXXXXXXXXXXXXXXXXXXXX",
"XXX ############################ XXXXXXXXXXXXXXXXXXXXXXXXXXXXXXX",
"XXX ############################ XXXXXXXXXXXXXXXXXXXXXXXXXXXXXXX",
"XXX ############################ XXXXXXXXXXXXXXXXXXXXXXXXXXXXXXX",
"XXX ############################ XXXXXXXXXXXXXXXXXXXXXXXXXXXXXXX",
"XXX ############################ XXXXXXXXXXXXXXXXXXXXXXXXXXXXXXX",
"XXX ############oo############## XXXXXXXXXXXXXXXXXXXXXXXXXXXXXXX",
"XXX #############o############## XXXXXXXXXXXXXXXXXXXXXXXXXXXXXXX",
"XXX ###########ooooo############ XXXXXXXXXXXXXXXXXXXXXXXXXXXXXXX",
"XXX ###########oooo############# XXXXXXXXXXXXXXXXXXXXXXXXXXXXXXX",
"XXX ###########ooooo############ XXXXXXXXXXXXXXXXXXXXXXXXXXXXXXX",
"XXX ###########oo#oo############ XXXXXXXXXXXXXXXXXXXXXXXXXXXXXXX",
"XXX ##################                                        XX",
"XXX ################## %%%%%%%%%%%%%%%%%%%%%%%%%%%%%%%%%%%%%% XX",
"XXX ################## %%%%%%%%%%%%%%%%%%%%%%%%%%%%%%%%%%%%%% XX",
"XXX ################## %%..................................%% XX",
"XXX ################## %%..................................%% XX",
"XXX ################## %%..................................%% XX",
"XXX ################## %%..................................%% XX",
"    ################## %%..................................%%   ",
"@@@                    %%..................................%% @@",
"@@@@@@@@@@@@@@@ #### + %%..............     ...............%% @@",
"@@@@@@@@        ####   %%.............. OOO ...............%% @@",
"@@@@@@@@ ############# %%.............. OOO ...............%% @@",
"@@@@@@@@ ############# %%.............. OOO ...............%% @@",
"@@@@@@@@ ############# %%..............     ...............%% @@",
"@@@@@@@@               %%..................................%% @@",
"@@@@@@@@@@@@@@@@@@@@@@ %%.........               ..........%% @@",
"@@@@@@@@@@@@@@@@@@@@@@ %%......... $$$$$$$$$$$$$ ..........%% @@",
"@@@@@@@@@@@@@@@@@@@@@@ %%.........               ..........%% @@",
"@@@@@@@@@@@@@@@@@@@@@@ %%..................................%% @@",
"@@@@@@@@@@@@@@@@@@@@@@ %%..............    ................%% @@",
"@@@@@@@@@@@@@@@@@@@@@@ %%..................................%% @@",
"@@@@@@@@@@@@@@@@@@@@@@ %%............... . ................%% @@",
"@@@@@@@@@@@@@@@@@@@@@@ %%..................................%% @@",
"@@@@@@@@@@@@@@@@@@@@@@ %%..................................%% @@",
"@@@@@@@@@@@@@@@@@@@@@@ %%%%%%%%%%%%%%%%%%%%%%%%%%%%%%%%%%%%%% @@",
"@@@@@@@@@@@@@@@@@@@@@@ %%%%%%%%%%%%%%%%%%%%%%%%%%%%%%%%%%%%%% @@",
"@@@@@@@@@@@@@@@@@@@@@@                   %%%                  @@",
"@@@@@@@@@@@@@@@@@@@@@@@@@@@@@@@@@@@@@@@@ %%% @@@@@@@@@@@@@@@@@@@",
"@@@@@@@@@@@@@@@@@@@@@@@@@@@@@@@@@@@@@@@@ %%% @@@@@@@@@@@@@@@@@@@",
"@@@@@@@@@@@@@@@@@@@@@@@@@@@@@@@@@@@@     %%%    @@@@@@@@@@@@@@@@",
"@@@@@@@@@@@@@@@@@@@@@@@@@@@@@@@@@@@@ %%%%%%%%%% @@@@@@@@@@@@@@@@",
"@@@@@@@@@@@@@@@@@@@@@@@@@@@@@@@@@@@@            @@@@@@@@@@@@@@@@",
"@@@@@@@@@@@@@@@@@@@@@@@@@@@@@@@@@@@@@@@@@@@@@@@@@@@@@@@@@@@@@@@@",
"@@@@@@@@@@@@@@@@@@@@@@@@@@                                   @@@",
"@@@@@@@@@@@@@@@@@@@@@@@@  %%%%%%%%%%%%%%%%%%%%%%%%%%%%%%%%%  @@@",
"@@@@@@@@@@@@@@@@@@@@@@  %%%%%%%%%%%%%%%%%%%%%%%%%%%%%%%%%%  @@@@",
"@@@@@@@@@@@@@@@@@@@@@ %%%%%%%%%%%%%%%%%%%%%%%%%%%%%%%%%%%  @@@@@",
"@@@@@@@@@@@@@@@@@@@@                                      @@@@@@",
"@@@@@@@@@@@@@@@@@@@@@@@@@@@@@@@@@@@@@@@@@@@@@@@@@@@@@@@@@@@@@@@@"
};
